<svg width="31" height="31" viewBox="0 0 31 31" fill="none" xmlns="http://www.w3.org/2000/svg">
<path opacity="0.8" d="M5.27391 14.0714C5.84095 11.0489 6.12383 9.53636 7.19978 8.64252C8.27703 7.74998 9.81412 7.74998 12.8909 7.74998H18.1092C21.1872 7.74998 22.7243 7.74998 23.8016 8.64252C24.8775 9.53636 25.1604 11.0476 25.7274 14.0714L26.6962 19.2381C27.4932 23.4902 27.8923 25.6163 26.7298 27.0165C25.5673 28.4166 23.405 28.4166 19.0792 28.4166H11.9221C7.59633 28.4166 5.43278 28.4166 4.27158 27.0165C3.10908 25.6163 3.5082 23.4902 4.30516 19.2381L5.27391 14.0714Z" fill="#FFAA00"/>
<path d="M12.5937 6.45827C12.5937 5.68748 12.8999 4.94827 13.445 4.40324C13.99 3.85821 14.7292 3.55202 15.5 3.55202C16.2708 3.55202 17.01 3.85821 17.555 4.40324C18.1001 4.94827 18.4062 5.68748 18.4062 6.45827V7.74994C19.1373 7.74994 19.778 7.75252 20.3437 7.76931V6.45827C20.3437 5.17363 19.8334 3.9416 18.925 3.03322C18.0167 2.12484 16.7846 1.61452 15.5 1.61452C14.2154 1.61452 12.9833 2.12484 12.075 3.03322C11.1666 3.9416 10.6562 5.17363 10.6562 6.45827V7.76931C11.222 7.75252 11.8627 7.74994 12.5937 7.74994V6.45827Z" fill="#FFAA00"/>
</svg>
