<svg width="28" height="31" viewBox="0 0 28 31" fill="none" xmlns="http://www.w3.org/2000/svg">
<g clip-path="url(#clip0_6966_9210)">
<path d="M8.61549 21.4585C11.6172 21.4585 14.0506 19.0251 14.0506 16.0234C14.0506 13.0217 11.6172 10.5883 8.61549 10.5883C5.61378 10.5883 3.18042 13.0217 3.18042 16.0234C3.18042 19.0251 5.61378 21.4585 8.61549 21.4585Z" stroke="#F3C450" stroke-width="2.01299"/>
<path d="M0.00147435 17.3117C0.000491452 17.3787 0 17.4458 0 17.513C0 24.9617 6.03835 31 13.487 31C20.9356 31 26.974 24.9617 26.974 17.513C26.974 17.4458 26.9735 17.3787 26.9725 17.3117H0.00147435Z" fill="#F3C450"/>
<path d="M20.0895 13.8091C21.4236 13.8091 22.5051 12.7276 22.5051 11.3935C22.5051 10.0594 21.4236 8.97793 20.0895 8.97793C18.7554 8.97793 17.674 10.0594 17.674 11.3935C17.674 12.7276 18.7554 13.8091 20.0895 13.8091Z" stroke="#F3C450" stroke-width="1.20779"/>
<path d="M15.6609 5.75721C16.995 5.75721 18.0765 4.67571 18.0765 3.34162C18.0765 2.00754 16.995 0.926043 15.6609 0.926043C14.3269 0.926043 13.2454 2.00754 13.2454 3.34162C13.2454 4.67571 14.3269 5.75721 15.6609 5.75721Z" stroke="#F3C450" stroke-width="1.20779"/>
</g>
<defs>
<clipPath id="clip0_6966_9210">
<rect width="27.0545" height="31" fill="white"/>
</clipPath>
</defs>
</svg>
