<svg width="11" height="11" viewBox="0 0 11 11" fill="none" xmlns="http://www.w3.org/2000/svg">
<g clip-path="url(#clip0_0_905)">
<path d="M6.67295 9.62291C6.50135 10.0013 6.38915 10.4127 6.34515 10.8439L9.96195 10.0739C10.1336 9.69551 10.2458 9.28411 10.2898 8.85291L6.67295 9.62291Z" fill="#121212"/>
<path d="M9.96188 7.77255C10.1335 7.39415 10.2457 6.98275 10.2897 6.55155L7.47148 7.14995V5.99715L9.96188 5.46695C10.1335 5.08855 10.2457 4.67715 10.2897 4.24595L7.47148 4.84435V0.70175C7.04028 0.94375 6.65528 1.26715 6.34508 1.64775V5.08415L5.21868 5.32395V0.13855C4.78748 0.38055 4.40248 0.70395 4.09228 1.08455V5.56375L1.57108 6.10055C1.39948 6.47895 1.28728 6.89035 1.24328 7.32155L4.09228 6.71655V8.16855L1.03868 8.81755C0.867077 9.19595 0.754876 9.60735 0.710876 10.0386L3.90748 9.35875C4.16708 9.30375 4.39148 9.14975 4.53668 8.93855L5.12188 8.06955C5.18348 7.97935 5.21868 7.87155 5.21868 7.75495V6.47675L6.34508 6.23695V8.54035L9.96188 7.77035V7.77255Z" fill="#121212"/>
</g>
<defs>
<clipPath id="clip0_0_905">
<rect width="11" height="11" fill="white"/>
</clipPath>
</defs>
</svg>
