<svg width="22" height="27" viewBox="0 0 22 27" fill="none" xmlns="http://www.w3.org/2000/svg">
<path d="M17.8066 13.8969C17.8196 12.8953 18.0864 11.9133 18.5822 11.0421C19.078 10.171 19.7867 9.43904 20.6424 8.91444C20.0988 8.14025 19.3817 7.50312 18.548 7.05366C17.7142 6.6042 16.7869 6.35479 15.8396 6.32523C13.8189 6.11372 11.8598 7.53102 10.8301 7.53102C9.78044 7.53102 8.19499 6.34623 6.48774 6.38126C5.38343 6.41684 4.30721 6.73706 3.36392 7.31073C2.42062 7.8844 1.64243 8.69194 1.10517 9.65469C-1.22215 13.6728 0.513816 19.578 2.74319 22.8259C3.85859 24.4164 5.16218 26.1929 6.86789 26.1299C8.53704 26.0609 9.16043 25.0685 11.1752 25.0685C13.1713 25.0685 13.7562 26.1299 15.4965 26.0898C17.2876 26.0608 18.4161 24.4924 19.4923 22.8869C20.2938 21.7537 20.9104 20.5012 21.3195 19.1759C20.279 18.737 19.391 18.0024 18.7663 17.0636C18.1416 16.1249 17.8078 15.0235 17.8066 13.8969Z" fill="white"/>
<path d="M14.5195 4.18873C15.4961 3.01968 15.9772 1.51707 15.8607 0C14.3687 0.156264 12.9905 0.867332 12.0008 1.99152C11.5169 2.54072 11.1462 3.17964 10.9101 3.87177C10.6739 4.56389 10.5769 5.29563 10.6245 6.02518C11.3707 6.03284 12.109 5.87155 12.7837 5.55344C13.4584 5.23534 14.0519 4.76872 14.5195 4.18873Z" fill="white"/>
</svg>
