<svg width="28" height="31" viewBox="0 0 28 31" fill="none" xmlns="http://www.w3.org/2000/svg">
<path d="M12.8645 14.6666L0.117393 28.1588C0.117872 28.1616 0.11883 28.164 0.119309 28.1668C0.510231 29.6317 1.85206 30.7105 3.4446 30.7105C4.08121 30.7105 4.6789 30.5389 5.19147 30.2376L5.23218 30.2138L19.5807 21.9571L12.8645 14.6666Z" fill="#EB3131"/>
<path d="M25.761 12.3692L25.7487 12.3608L19.5541 8.77963L12.5751 14.9727L19.5784 21.9557L25.7404 18.4101C26.8207 17.8285 27.554 16.6927 27.554 15.3831C27.554 14.0828 26.8305 12.9527 25.761 12.3692Z" fill="#F6B60B"/>
<path d="M0.116906 2.55141C0.0402778 2.83319 0 3.12835 0 3.43485V27.2762C0 27.5821 0.0397986 27.8782 0.117384 28.159L13.3032 15.012L0.116906 2.55141Z" fill="#5778C5"/>
<path d="M12.9585 15.3551L19.5564 8.77733L5.22417 0.490731C4.70322 0.179575 4.09523 -9.53674e-07 3.44461 -9.53674e-07C1.85207 -9.53674e-07 0.508448 1.08069 0.117407 2.54752C0.116928 2.54895 0.116928 2.54991 0.116928 2.55122L12.9585 15.3551Z" fill="#3BAD49"/>
</svg>
