<svg width="31" height="31" viewBox="0 0 31 31" fill="none" xmlns="http://www.w3.org/2000/svg">
<path fill-rule="evenodd" clip-rule="evenodd" d="M21.8531 0H8.55541C2.27504 0 0 2.30708 0 8.55541V21.8531C0 28.1335 2.30708 30.4085 8.55541 30.4085H21.8531C28.1335 30.4085 30.4086 28.1015 30.4086 21.8531V8.55541C30.4406 2.30708 28.1335 0 21.8531 0Z" fill="#C8102E"/>
<path d="M6.02406 15.2207H6.82513V19.194H6.02406V17.5919H4.19764V19.194H3.39658V15.2207H4.19764V16.8228H6.02406V15.2207ZM10.5741 17.4957C10.5741 18.1366 10.2537 18.4891 9.67694 18.4891C9.10017 18.4891 8.77975 18.1366 8.77975 17.4637V15.2207H7.97868V17.4957C7.97868 18.6172 8.58749 19.2581 9.67694 19.2581C10.7664 19.2581 11.4073 18.6172 11.4073 17.4637V15.2207H10.6062V17.4957H10.5741ZM19.8986 17.9443L19.0014 15.2207H18.3285L17.4313 17.9443L16.5661 15.2207H15.701L17.0788 19.194H17.7517L18.6489 16.5665L19.5461 19.194H20.219L21.5968 15.2207H20.7637L19.8986 17.9443ZM23.0708 17.4957H24.5448V16.7588H23.0708V15.9577H25.2177V15.2207H22.3018V19.194H25.3138V18.457H23.1029V17.4957H23.0708ZM26.243 19.194H27.0441V15.2207H26.243V19.194ZM12.9773 18.3609L12.6249 19.194H11.7918L13.5221 15.2207H14.227L15.9573 19.194H15.1242L14.7717 18.3609H12.9773ZM13.2657 17.6559H14.4834L13.8745 16.2461L13.2657 17.6559Z" fill="white"/>
<path d="M15.2204 10.1575C12.4327 10.1575 10.1576 7.88244 10.1576 5.09473H10.8626C10.8626 7.49793 12.8172 9.45254 15.2204 9.45254C17.6236 9.45254 19.5782 7.49793 19.5782 5.09473H20.2831C20.2831 7.88244 18.0081 10.1575 15.2204 10.1575Z" fill="white"/>
</svg>
