<svg width="74" height="27" viewBox="0 0 74 27" fill="none" xmlns="http://www.w3.org/2000/svg">
<path d="M70.4941 2.88281C69.9002 3.11771 69.426 3.59639 69.191 4.18587C68.3489 6.32663 70.37 8.34328 72.5108 7.48786C73.1047 7.25296 73.5789 6.77428 73.8094 6.1848C74.6471 4.04848 72.6304 2.03626 70.4941 2.88281ZM70.5783 7.14215C70.1041 6.93827 69.7229 6.55267 69.5279 6.07399C68.7744 4.20804 70.5562 2.44845 72.4177 3.23738C72.8919 3.43683 73.2731 3.82687 73.4681 4.30554C74.2216 6.1715 72.4399 7.93108 70.5783 7.14215Z" fill="white"/>
<path d="M72.564 6.33101C72.4576 6.18918 72.3557 6.05178 72.2493 5.90995C72.1473 5.77698 72.0498 5.63958 71.9479 5.50218C71.9701 5.49332 71.9922 5.48446 72.0099 5.47559C72.2582 5.36922 72.4266 5.20079 72.5108 4.97475C72.7324 4.38084 72.236 3.7559 71.5977 3.75146C71.3451 3.75146 71.0881 3.75146 70.8354 3.75146C70.8044 3.75146 70.7822 3.77363 70.7822 3.80022V5.67061C70.7822 5.91881 70.7822 6.16258 70.7822 6.41078C70.7822 6.45067 70.7911 6.495 70.8133 6.52602C70.8487 6.5925 70.9329 6.62353 71.0038 6.60137C71.088 6.57921 71.1368 6.51273 71.1368 6.42408V5.74152C71.1368 5.63072 71.2299 5.53764 71.3407 5.53764C71.3673 5.53764 71.3894 5.53764 71.416 5.53764C71.4825 5.53764 71.5446 5.56423 71.5845 5.61742C71.8061 5.91881 72.0321 6.21577 72.2581 6.50829C72.2847 6.54375 72.3158 6.57478 72.3512 6.59251C72.4221 6.62796 72.5064 6.60137 72.5595 6.54375C72.6127 6.47727 72.6127 6.39306 72.5595 6.32214L72.564 6.33101ZM71.4781 5.1875H71.3451C71.2343 5.1875 71.1412 5.09442 71.1412 4.98362V4.32765C71.221 4.24344 71.2698 4.19912 71.3495 4.11491C71.4914 4.11491 71.6288 4.11491 71.7706 4.1282C72.0232 4.1548 72.2138 4.39413 72.2094 4.65563C72.2094 4.9127 72.0188 5.14318 71.7706 5.17863C71.6731 5.19193 71.5756 5.1875 71.4781 5.19193V5.1875Z" fill="white"/>
<path d="M17.4895 5.78584C17.1704 5.52434 16.7936 5.4224 16.3992 5.36035C16.2263 5.37808 16.0534 5.39138 15.8806 5.40911C15.3133 5.56867 14.8833 5.90108 14.5598 6.39305C14.1343 7.04902 13.9216 7.78477 13.7886 8.53824C13.5714 9.75709 13.3808 10.9848 13.1991 12.2081C12.9154 14.1228 12.6451 16.042 12.3614 17.9567C12.3082 18.3157 12.2462 18.688 12.1088 19.0204C11.9182 19.4902 11.4661 19.601 11.0894 19.2642C10.8456 19.047 10.6506 18.7545 10.4777 18.4708C10.2473 18.0852 9.85279 17.9079 9.48049 18.0763C9.06829 18.2669 8.91317 18.6702 9.09489 19.1046C9.28104 19.5434 9.54254 19.9246 9.88382 20.257C10.327 20.6913 10.8678 20.9218 11.4794 20.9839C11.6656 20.9661 11.8517 20.9484 12.0423 20.9307C12.1221 20.8996 12.2019 20.8686 12.2816 20.8376C13.1725 20.4697 13.5936 19.7473 13.762 18.852C13.8684 18.2802 13.9348 17.6996 14.0191 17.119C14.3116 15.0935 14.5908 13.0679 14.9055 11.0469C15.0695 10.0097 15.2822 8.97703 15.5127 7.95319C15.5836 7.64737 15.752 7.35041 15.9382 7.08891C16.1377 6.80525 16.4479 6.80968 16.6429 7.08891C16.7936 7.30609 16.8956 7.57202 16.9753 7.82909C17.0994 8.22799 17.4629 8.46732 17.8751 8.38754C18.2474 8.31663 18.5399 7.93546 18.469 7.55429C18.3405 6.854 18.0524 6.23793 17.4895 5.77255V5.78584Z" fill="white"/>
<path d="M27.5018 13.0192C27.4708 12.4696 27.2093 11.9732 26.7572 11.5831C24.5455 9.68172 24.7272 8.36979 25.1306 7.44346L25.1971 7.29276L25.2148 7.13321C25.3034 6.22904 25.1261 5.50659 24.6874 4.98359C24.12 4.30989 23.3089 4.1725 22.6707 4.12817C21.1682 4.0218 20.2596 3.37027 19.6258 1.94753C19.2889 1.18962 18.859 0.360803 18.008 0.0860069C17.1615 -0.184357 16.3327 0.232269 15.6279 0.648896C14.2628 1.44669 13.1814 1.45556 12.0246 0.679922C11.8207 0.542523 11.6168 0.458312 11.4528 0.387396C11.4085 0.369668 11.3642 0.351939 11.3243 0.329778C10.0301 -0.259705 8.85554 0.130329 8.18184 1.37578L8.13752 1.45999C7.88932 1.92094 7.64111 2.38189 7.40177 2.8517C7.07822 3.48994 6.63057 3.81349 5.95245 3.911C5.61117 3.95975 5.28761 4.02623 4.9685 4.09272L4.68484 4.15033C3.91363 4.30546 3.04935 4.52707 2.58397 5.24952C2.14518 5.93208 2.25156 6.72544 2.42885 7.48335C2.78342 8.977 2.44657 10.0452 1.30307 11.0601C0.669262 11.6053 0 12.279 0 13.1832C0 14.0873 0.682559 14.7655 1.31636 15.3283C2.45544 16.3345 2.77013 17.3716 2.41112 18.914C2.24269 19.6364 2.11859 20.5628 2.65046 21.2808C3.18232 22.0032 4.08649 22.1584 4.8178 22.2116C6.3735 22.3268 7.27324 22.9783 7.92921 24.4587C8.27492 25.2387 8.70484 25.9966 9.5115 26.2626C10.3182 26.5241 11.116 26.1606 11.8606 25.7263C13.208 24.9418 14.3337 24.9329 15.6324 25.7086C16.1953 26.041 16.7847 26.3557 17.4141 26.3557C17.5737 26.3557 17.7377 26.3335 17.9017 26.2892C18.7172 26.0631 19.1604 25.3363 19.6169 24.4808L19.7676 24.1972C20.2773 23.2221 20.6009 22.6636 21.3233 22.4952C21.6469 22.4199 21.9837 22.3667 22.3383 22.3046C22.5555 22.2692 22.7771 22.2337 22.9943 22.1938C23.7256 22.0564 24.5322 21.8215 24.9887 21.1035C25.4364 20.3988 25.299 19.5788 25.1572 19.0248C24.7272 17.3672 25.104 16.1838 26.3805 15.1776C26.5533 15.0402 26.6774 14.894 26.7794 14.7788L26.8547 14.6901C27.3201 14.1804 27.5461 13.5998 27.5107 13.0103L27.5018 13.0192ZM25.3212 13.3073C25.2813 13.3516 25.2458 13.3959 25.2059 13.4358C25.166 13.4801 25.1128 13.5466 25.0907 13.5643C23.1671 15.0801 22.5156 17.0924 23.1494 19.5434C23.2114 19.7916 23.2247 19.9245 23.2203 19.991C23.1494 20.0265 22.981 20.0974 22.6042 20.1683C22.4003 20.2082 22.1965 20.2392 21.997 20.2747C21.6247 20.3367 21.2391 20.3988 20.8491 20.4919C19.1693 20.8819 18.4867 22.1938 17.9371 23.2443L17.7953 23.5146C17.5559 23.9667 17.4141 24.175 17.3343 24.2725C17.2324 24.2371 17.0374 24.1484 16.6828 23.9401C14.7326 22.7833 12.8179 22.7877 10.819 23.9534C10.4556 24.1662 10.2561 24.2459 10.1586 24.277C10.0966 24.1927 9.98575 24.0155 9.81732 23.6343C8.85997 21.4669 7.27767 20.3323 4.97293 20.1594C4.59619 20.1328 4.41004 20.0797 4.33026 20.0486C4.32583 19.96 4.33026 19.765 4.42334 19.3794C4.95077 17.1145 4.37901 15.284 2.68591 13.7815C2.31361 13.4535 2.15848 13.2718 2.09643 13.1787C2.15848 13.0857 2.30918 12.9084 2.67262 12.5892C4.38788 11.0646 4.95963 9.23407 4.4322 6.99581C4.34799 6.6368 4.33469 6.45065 4.33469 6.362C4.42334 6.31768 4.62722 6.24677 5.08373 6.15812L5.38069 6.1005C5.67765 6.03845 5.96131 5.98083 6.24054 5.94094C7.57906 5.75036 8.6162 5.00132 9.24114 3.7736C9.47161 3.32151 9.71095 2.87829 9.95029 2.43064L9.99461 2.34643C10.0966 2.15584 10.1719 2.11595 10.1719 2.11595C10.1719 2.11595 10.2561 2.10266 10.4689 2.19573C10.5309 2.22233 10.5885 2.24892 10.6506 2.27551C10.7348 2.31097 10.8367 2.35529 10.8722 2.37745C12.7071 3.61404 14.6041 3.6229 16.6651 2.41734C17.0551 2.1913 17.2634 2.10266 17.3654 2.07163C17.4318 2.16028 17.5515 2.35529 17.7421 2.77635C18.6906 4.90381 20.2552 6.01629 22.5244 6.17585C23.0164 6.21131 23.1051 6.29552 23.1139 6.30882C23.1405 6.33984 23.1893 6.47724 23.176 6.78749C22.3073 8.977 23.0607 11.1133 25.4187 13.1433C25.4275 13.1477 25.432 13.1521 25.4364 13.161C25.4187 13.192 25.3876 13.2452 25.33 13.3073H25.3212Z" fill="white"/>
<path d="M60.3311 16.3568V18.2937C60.3311 18.7635 60.2203 19.1136 59.9987 19.3486C59.7771 19.5835 59.4979 19.6987 59.1566 19.6987C58.8153 19.6987 58.5494 19.579 58.3322 19.3441C58.115 19.1048 58.0087 18.7546 58.0087 18.2937V11.8404C58.0087 10.7988 58.3854 10.2803 59.1389 10.2803C59.5245 10.2803 59.7993 10.3999 59.9721 10.6437C60.1406 10.8875 60.2336 11.2465 60.2514 11.7207C60.5306 11.2465 60.8142 10.8875 61.1068 10.6437C61.3993 10.3999 61.7893 10.2803 62.2724 10.2803C62.7556 10.2803 63.2298 10.3999 63.6907 10.6437C64.1473 10.8875 64.3777 11.211 64.3777 11.6099C64.3777 11.8936 64.2802 12.1285 64.0852 12.3102C63.8902 12.4919 63.6775 12.585 63.4514 12.585C63.3672 12.585 63.1633 12.5318 62.8353 12.4299C62.5118 12.3235 62.2237 12.2748 61.9755 12.2748C61.6342 12.2748 61.3594 12.3634 61.1422 12.5407C60.9251 12.718 60.7611 12.9839 60.6414 13.3341C60.5217 13.6842 60.4419 14.1008 60.3932 14.5884C60.3489 15.0715 60.3267 15.661 60.3267 16.3568H60.3311Z" fill="white"/>
<path d="M32.6077 7.27951C32.6077 7.08893 32.6963 6.99585 32.8736 6.99585H35.0853C35.2759 6.99585 35.369 7.09336 35.369 7.27951V16.5074C35.369 16.8531 35.4266 17.1101 35.5463 17.2741C35.6659 17.4425 35.9097 17.5223 36.2776 17.5223H40.5059C40.6965 17.5223 40.7895 17.6154 40.7895 17.806V19.1268C40.7895 19.3528 40.6876 19.4725 40.4882 19.4858C39.8322 19.5434 39.0831 19.5966 38.241 19.6365C37.3945 19.6764 36.5213 19.6985 35.6172 19.6985C35.0587 19.6985 34.5845 19.6498 34.1989 19.5567C33.8133 19.4636 33.4986 19.3085 33.2637 19.1002C33.0243 18.8919 32.8559 18.6215 32.754 18.2891C32.652 17.9567 32.6033 17.5445 32.6033 17.0569V7.27508L32.6077 7.27951Z" fill="white"/>
<path d="M44.978 7.38592C44.978 7.5898 44.9514 7.82471 44.8982 8.09064C44.845 8.35657 44.7652 8.62694 44.6589 8.90174C44.6012 9.0347 44.5303 9.12334 44.455 9.17653C44.3796 9.22972 44.2422 9.25631 44.0517 9.25631H42.589C42.3851 9.25631 42.2876 9.14994 42.2876 8.93276V7.25296C42.2876 7.04021 42.3896 6.93384 42.589 6.93384H44.6766C44.8805 6.93384 44.978 7.04021 44.978 7.25296V7.37706V7.38592ZM42.2832 10.7766C42.2832 10.5638 42.3851 10.4574 42.5846 10.4574H44.5835C44.7874 10.4574 44.8849 10.5638 44.8849 10.7766V19.3972C44.8849 19.6011 44.783 19.6986 44.5835 19.6986H42.5846C42.3807 19.6986 42.2832 19.5966 42.2832 19.3972V10.7766Z" fill="white"/>
<path d="M52.2955 10.1738C52.916 10.1738 53.4656 10.2802 53.9487 10.4929C54.4318 10.7057 54.8396 11.0026 55.172 11.3838C55.5044 11.7649 55.7571 12.2126 55.9299 12.7312C56.1028 13.2497 56.187 13.8171 56.187 14.4376V15.1157C56.187 15.7938 56.0895 16.4143 55.8945 16.9816C55.6994 17.549 55.3981 18.0276 54.9947 18.4265C54.5914 18.8254 54.0861 19.1357 53.4878 19.3617C52.885 19.5878 52.1803 19.703 51.3736 19.703C50.137 19.703 49.0157 19.5656 48.0184 19.2908C47.6727 19.2066 47.4999 18.9274 47.4999 18.4531V6.81418C47.4999 6.62359 47.5885 6.53052 47.7658 6.53052H49.8179C50.0085 6.53052 50.1016 6.62359 50.1016 6.81418V10.5461C50.3764 10.4264 50.7132 10.3333 51.121 10.2713C51.5243 10.2048 51.9188 10.1738 52.3 10.1738H52.2955ZM50.1016 17.5268C50.3055 17.5844 50.5093 17.6243 50.7177 17.642C50.926 17.6598 51.1387 17.6686 51.3515 17.6686C52.1005 17.6686 52.659 17.4293 53.0313 16.9551C53.3991 16.4808 53.5853 15.8204 53.5853 14.9739V14.5617C53.5853 13.7151 53.3991 13.1123 53.0313 12.7489C52.6634 12.3855 52.1049 12.2037 51.3515 12.2037C51.1476 12.2037 50.9348 12.2082 50.7088 12.2215C50.4828 12.2348 50.2789 12.2525 50.1016 12.2746V17.5224V17.5268Z" fill="white"/>
<path d="M64.8076 14.6149C64.8076 13.1257 65.1932 12.0132 65.96 11.2775C66.7268 10.5417 67.8171 10.1694 69.2354 10.1694C70.6537 10.1694 71.744 10.5373 72.5108 11.2775C73.2776 12.0177 73.6632 13.1301 73.6632 14.6149V15.2576C73.6632 16.7468 73.2776 17.8593 72.5108 18.595C71.744 19.3352 70.6493 19.7031 69.2354 19.7031C67.8215 19.7031 66.7268 19.3352 65.96 18.595C65.1932 17.8593 64.8076 16.7468 64.8076 15.2576V14.6149ZM67.4138 15.2044C67.4138 16.0244 67.5467 16.6404 67.8171 17.0526C68.083 17.4648 68.5573 17.6687 69.2354 17.6687C69.9135 17.6687 70.3878 17.4648 70.6537 17.0526C70.9196 16.6404 71.057 16.0244 71.057 15.2044V14.6681C71.057 13.8482 70.9241 13.2321 70.6537 12.8199C70.3878 12.4077 69.9135 12.2038 69.2354 12.2038C68.5573 12.2038 68.083 12.4077 67.8171 12.8199C67.5511 13.2321 67.4138 13.8482 67.4138 14.6681V15.2044Z" fill="white"/>
</svg>
