<svg width="74" height="27" viewBox="0 0 74 27" fill="none" xmlns="http://www.w3.org/2000/svg">
<g clip-path="url(#clip0_5845_20134)">
<path d="M70.4937 2.8894C69.8998 3.12431 69.4256 3.60298 69.1907 4.19247C68.3486 6.33322 70.3696 8.34987 72.5104 7.49446C73.1043 7.25955 73.5786 6.78087 73.809 6.19139C74.6467 4.05507 72.6301 2.04285 70.4937 2.8894ZM70.578 7.14874C70.1037 6.94486 69.7225 6.55926 69.5275 6.08058C68.7741 4.21463 70.5558 2.45504 72.4173 3.24398C72.8916 3.44342 73.2727 3.83346 73.4678 4.31214C74.2212 6.17809 72.4395 7.93767 70.578 7.14874Z" fill="#3E4852"/>
<path d="M72.564 6.33784C72.4576 6.19601 72.3557 6.05861 72.2493 5.91678C72.1473 5.78382 72.0498 5.64642 71.9479 5.50902C71.9701 5.50016 71.9922 5.49129 72.0099 5.48243C72.2582 5.37605 72.4266 5.20763 72.5108 4.98159C72.7324 4.38767 72.236 3.76273 71.5977 3.7583C71.3451 3.7583 71.0881 3.7583 70.8354 3.7583C70.8044 3.7583 70.7822 3.78046 70.7822 3.80706V5.67744C70.7822 5.92565 70.7822 6.16942 70.7822 6.41762C70.7822 6.45751 70.7911 6.50183 70.8133 6.53286C70.8487 6.59934 70.9329 6.63037 71.0038 6.60821C71.088 6.58604 71.1368 6.51956 71.1368 6.43092V5.74836C71.1368 5.63755 71.2299 5.54448 71.3407 5.54448C71.3673 5.54448 71.3894 5.54448 71.416 5.54448C71.4825 5.54448 71.5446 5.57107 71.5845 5.62426C71.8061 5.92565 72.0321 6.2226 72.2581 6.51513C72.2847 6.55059 72.3158 6.58161 72.3512 6.59934C72.4221 6.6348 72.5064 6.60821 72.5595 6.55059C72.6127 6.4841 72.6127 6.39989 72.5595 6.32898L72.564 6.33784ZM71.4781 5.19433H71.3451C71.2343 5.19433 71.1412 5.10126 71.1412 4.99045V4.33449C71.221 4.25028 71.2698 4.20595 71.3495 4.12174C71.4914 4.12174 71.6288 4.12174 71.7706 4.13504C72.0232 4.16163 72.2138 4.40097 72.2094 4.66247C72.2094 4.91954 72.0188 5.15001 71.7706 5.18547C71.6731 5.19877 71.5756 5.19433 71.4781 5.19877V5.19433Z" fill="#3E4852"/>
<path d="M17.4893 5.79268C17.1702 5.53118 16.7934 5.42924 16.399 5.36719C16.2261 5.38492 16.0533 5.39821 15.8804 5.41594C15.3131 5.5755 14.8832 5.90792 14.5596 6.39989C14.1341 7.05586 13.9214 7.7916 13.7884 8.54508C13.5712 9.76393 13.3806 10.9916 13.1989 12.2149C12.9153 14.1296 12.6449 16.0488 12.3612 17.9635C12.308 18.3225 12.246 18.6948 12.1086 19.0272C11.918 19.497 11.4659 19.6078 11.0892 19.271C10.8454 19.0538 10.6504 18.7613 10.4775 18.4776C10.2471 18.092 9.85261 17.9147 9.4803 18.0832C9.06811 18.2738 8.91298 18.6771 9.0947 19.1114C9.28085 19.5502 9.54235 19.9314 9.88363 20.2638C10.3269 20.6982 10.8676 20.9286 11.4792 20.9907C11.6654 20.973 11.8515 20.9552 12.0421 20.9375C12.1219 20.9065 12.2017 20.8755 12.2815 20.8444C13.1723 20.4766 13.5934 19.7541 13.7618 18.8588C13.8682 18.2871 13.9347 17.7064 14.0189 17.1258C14.3114 15.1003 14.5906 13.0748 14.9053 11.0537C15.0693 10.0166 15.2821 8.98386 15.5125 7.96002C15.5834 7.6542 15.7519 7.35725 15.938 7.09575C16.1375 6.81209 16.4477 6.81652 16.6427 7.09575C16.7934 7.31292 16.8954 7.57886 16.9752 7.83592C17.0993 8.23482 17.4627 8.47416 17.8749 8.39438C18.2472 8.32347 18.5397 7.9423 18.4688 7.56113C18.3403 6.86084 18.0522 6.24476 17.4893 5.77938V5.79268Z" fill="#3E4852"/>
<path d="M27.5018 13.026C27.4708 12.4764 27.2093 11.98 26.7572 11.59C24.5455 9.68856 24.7272 8.37663 25.1306 7.45029L25.1971 7.2996L25.2148 7.14004C25.3034 6.23587 25.1261 5.51342 24.6874 4.99042C24.12 4.31673 23.3089 4.17933 22.6707 4.13501C21.1682 4.02864 20.2596 3.3771 19.6258 1.95437C19.2889 1.19646 18.859 0.367639 18.008 0.0928428C17.1615 -0.177521 16.3327 0.239105 15.6279 0.655732C14.2628 1.45353 13.1814 1.46239 12.0246 0.686758C11.8207 0.549359 11.6168 0.465148 11.4528 0.394232C11.4085 0.376504 11.3642 0.358775 11.3243 0.336614C10.0301 -0.252869 8.85554 0.137165 8.18184 1.38261L8.13752 1.46682C7.88932 1.92777 7.64111 2.38872 7.40177 2.85854C7.07822 3.49677 6.63057 3.82032 5.95245 3.91783C5.61117 3.96659 5.28761 4.03307 4.9685 4.09955L4.68484 4.15717C3.91363 4.3123 3.04935 4.53391 2.58397 5.25636C2.14518 5.93891 2.25156 6.73228 2.42885 7.49019C2.78342 8.98384 2.44657 10.052 1.30307 11.067C0.669262 11.6121 0 12.2858 0 13.19C0 14.0942 0.682559 14.7723 1.31636 15.3352C2.45544 16.3413 2.77013 17.3784 2.41112 18.9208C2.24269 19.6433 2.11859 20.5696 2.65046 21.2876C3.18232 22.0101 4.08649 22.1652 4.8178 22.2184C6.3735 22.3336 7.27324 22.9852 7.92921 24.4655C8.27492 25.2456 8.70484 26.0035 9.5115 26.2694C10.3182 26.5309 11.116 26.1675 11.8606 25.7331C13.208 24.9486 14.3337 24.9398 15.6324 25.7154C16.1953 26.0478 16.7847 26.3625 17.4141 26.3625C17.5737 26.3625 17.7377 26.3403 17.9017 26.296C18.7172 26.07 19.1604 25.3431 19.6169 24.4877L19.7676 24.204C20.2773 23.2289 20.6009 22.6705 21.3233 22.502C21.6469 22.4267 21.9837 22.3735 22.3383 22.3115C22.5555 22.276 22.7771 22.2405 22.9943 22.2007C23.7256 22.0633 24.5322 21.8284 24.9887 21.1103C25.4364 20.4056 25.299 19.5857 25.1572 19.0316C24.7272 17.374 25.104 16.1906 26.3805 15.1845C26.5533 15.0471 26.6774 14.9008 26.7794 14.7856L26.8547 14.6969C27.3201 14.1872 27.5461 13.6066 27.5107 13.0171L27.5018 13.026ZM25.3212 13.3141C25.2813 13.3584 25.2458 13.4027 25.2059 13.4426C25.166 13.487 25.1128 13.5534 25.0907 13.5712C23.1671 15.087 22.5156 17.0992 23.1494 19.5502C23.2114 19.7984 23.2247 19.9314 23.2203 19.9979C23.1494 20.0333 22.981 20.1042 22.6042 20.1751C22.4003 20.215 22.1965 20.2461 21.997 20.2815C21.6247 20.3436 21.2391 20.4056 20.8491 20.4987C19.1693 20.8887 18.4867 22.2007 17.9371 23.2511L17.7953 23.5215C17.5559 23.9735 17.4141 24.1819 17.3343 24.2794C17.2324 24.2439 17.0374 24.1553 16.6828 23.9469C14.7326 22.7901 12.8179 22.7946 10.819 23.9602C10.4556 24.173 10.2561 24.2528 10.1586 24.2838C10.0966 24.1996 9.98575 24.0223 9.81732 23.6411C8.85997 21.4738 7.27767 20.3391 4.97293 20.1663C4.59619 20.1397 4.41004 20.0865 4.33026 20.0555C4.32583 19.9668 4.33026 19.7718 4.42334 19.3862C4.95077 17.1214 4.37901 15.2909 2.68591 13.7883C2.31361 13.4604 2.15848 13.2786 2.09643 13.1856C2.15848 13.0925 2.30918 12.9152 2.67262 12.5961C4.38788 11.0714 4.95963 9.2409 4.4322 7.00264C4.34799 6.64363 4.33469 6.45748 4.33469 6.36884C4.42334 6.32452 4.62722 6.2536 5.08373 6.16496L5.38069 6.10734C5.67765 6.04529 5.96131 5.98767 6.24054 5.94778C7.57906 5.75719 8.6162 5.00815 9.24114 3.78043C9.47161 3.32835 9.71095 2.88513 9.95029 2.43748L9.99461 2.35327C10.0966 2.16268 10.1719 2.12279 10.1719 2.12279C10.1719 2.12279 10.2561 2.10949 10.4689 2.20257C10.5309 2.22916 10.5885 2.25576 10.6506 2.28235C10.7348 2.31781 10.8367 2.36213 10.8722 2.38429C12.7071 3.62087 14.6041 3.62974 16.6651 2.42418C17.0551 2.19814 17.2634 2.10949 17.3654 2.07847C17.4318 2.16711 17.5515 2.36213 17.7421 2.78319C18.6906 4.91064 20.2552 6.02313 22.5244 6.18269C23.0164 6.21814 23.1051 6.30236 23.1139 6.31565C23.1405 6.34668 23.1893 6.48408 23.176 6.79433C22.3073 8.98384 23.0607 11.1202 25.4187 13.1501C25.4275 13.1545 25.432 13.159 25.4364 13.1678C25.4187 13.1989 25.3876 13.252 25.33 13.3141H25.3212Z" fill="#3E4852"/>
<path d="M60.3313 16.3632V18.3C60.3313 18.7699 60.2205 19.12 59.9988 19.3549C59.7772 19.5898 59.498 19.705 59.1567 19.705C58.8154 19.705 58.5495 19.5854 58.3323 19.3505C58.1152 19.1111 58.0088 18.761 58.0088 18.3V11.8468C58.0088 10.8052 58.3855 10.2866 59.139 10.2866C59.5246 10.2866 59.7994 10.4063 59.9723 10.6501C60.1407 10.8938 60.2338 11.2528 60.2515 11.7271C60.5307 11.2528 60.8144 10.8938 61.1069 10.6501C61.3994 10.4063 61.7895 10.2866 62.2726 10.2866C62.7557 10.2866 63.2299 10.4063 63.6909 10.6501C64.1474 10.8938 64.3779 11.2174 64.3779 11.6163C64.3779 11.8999 64.2803 12.1348 64.0853 12.3166C63.8903 12.4983 63.6776 12.5914 63.4515 12.5914C63.3673 12.5914 63.1634 12.5382 62.8355 12.4362C62.5119 12.3299 62.2238 12.2811 61.9756 12.2811C61.6343 12.2811 61.3595 12.3698 61.1424 12.547C60.9252 12.7243 60.7612 12.9903 60.6415 13.3404C60.5218 13.6906 60.4421 14.1072 60.3933 14.5947C60.349 15.0778 60.3268 15.6673 60.3268 16.3632H60.3313Z" fill="#3E4852"/>
<path d="M32.6079 7.2861C32.6079 7.09552 32.6966 7.00244 32.8739 7.00244H35.0856C35.2761 7.00244 35.3692 7.09995 35.3692 7.2861V16.5139C35.3692 16.8597 35.4268 17.1167 35.5465 17.2807C35.6662 17.4491 35.9099 17.5289 36.2778 17.5289H40.5061C40.6967 17.5289 40.7898 17.622 40.7898 17.8126V19.1334C40.7898 19.3594 40.6878 19.4791 40.4884 19.4924C39.8324 19.55 39.0834 19.6032 38.2413 19.6431C37.3947 19.683 36.5216 19.7051 35.6174 19.7051C35.059 19.7051 34.5847 19.6564 34.1991 19.5633C33.8135 19.4702 33.4988 19.3151 33.2639 19.1068C33.0246 18.8985 32.8562 18.6281 32.7542 18.2957C32.6523 17.9633 32.6035 17.5511 32.6035 17.0635V7.28167L32.6079 7.2861Z" fill="#3E4852"/>
<path d="M44.978 7.39251C44.978 7.5964 44.9514 7.8313 44.8982 8.09723C44.845 8.36317 44.7652 8.63353 44.6589 8.90833C44.6012 9.04129 44.5303 9.12994 44.455 9.18312C44.3796 9.23631 44.2422 9.2629 44.0517 9.2629H42.589C42.3851 9.2629 42.2876 9.15653 42.2876 8.93935V7.25955C42.2876 7.0468 42.3896 6.94043 42.589 6.94043H44.6766C44.8805 6.94043 44.978 7.0468 44.978 7.25955V7.38365V7.39251ZM42.2832 10.7831C42.2832 10.5704 42.3851 10.464 42.5846 10.464H44.5835C44.7874 10.464 44.8849 10.5704 44.8849 10.7831V19.4038C44.8849 19.6077 44.783 19.7052 44.5835 19.7052H42.5846C42.3807 19.7052 42.2832 19.6032 42.2832 19.4038V10.7831Z" fill="#3E4852"/>
<path d="M52.2956 10.1804C52.9161 10.1804 53.4657 10.2868 53.9489 10.4995C54.432 10.7122 54.8397 11.0092 55.1721 11.3904C55.5046 11.7715 55.7572 12.2192 55.93 12.7378C56.1029 13.2563 56.1871 13.8236 56.1871 14.4442V15.1223C56.1871 15.8004 56.0896 16.4209 55.8946 16.9882C55.6996 17.5556 55.3982 18.0342 54.9949 18.4331C54.5915 18.832 54.0863 19.1423 53.4879 19.3683C52.8851 19.5944 52.1804 19.7096 51.3737 19.7096C50.1372 19.7096 49.0158 19.5722 48.0186 19.2974C47.6729 19.2132 47.5 18.934 47.5 18.4597V6.82077C47.5 6.63019 47.5886 6.53711 47.7659 6.53711H49.818C50.0086 6.53711 50.1017 6.63019 50.1017 6.82077V10.5527C50.3765 10.433 50.7133 10.3399 51.1211 10.2779C51.5244 10.2114 51.9189 10.1804 52.3001 10.1804H52.2956ZM50.1017 17.5334C50.3056 17.591 50.5095 17.6309 50.7178 17.6486C50.9261 17.6664 51.1388 17.6752 51.3516 17.6752C52.1006 17.6752 52.6591 17.4359 53.0314 16.9616C53.3993 16.4874 53.5854 15.827 53.5854 14.9805V14.5683C53.5854 13.7217 53.3993 13.1189 53.0314 12.7555C52.6635 12.392 52.1051 12.2103 51.3516 12.2103C51.1477 12.2103 50.935 12.2148 50.7089 12.2281C50.4829 12.2414 50.279 12.2591 50.1017 12.2812V17.529V17.5334Z" fill="#3E4852"/>
<path d="M64.8076 14.6213C64.8076 13.1321 65.1932 12.0196 65.96 11.2838C66.7268 10.5481 67.8171 10.1758 69.2354 10.1758C70.6537 10.1758 71.744 10.5437 72.5108 11.2838C73.2776 12.024 73.6632 13.1365 73.6632 14.6213V15.2639C73.6632 16.7532 73.2776 17.8656 72.5108 18.6014C71.744 19.3416 70.6493 19.7094 69.2354 19.7094C67.8215 19.7094 66.7268 19.3416 65.96 18.6014C65.1932 17.8656 64.8076 16.7532 64.8076 15.2639V14.6213ZM67.4138 15.2108C67.4138 16.0307 67.5467 16.6468 67.8171 17.059C68.083 17.4712 68.5573 17.6751 69.2354 17.6751C69.9135 17.6751 70.3878 17.4712 70.6537 17.059C70.9196 16.6468 71.057 16.0307 71.057 15.2108V14.6745C71.057 13.8545 70.9241 13.2384 70.6537 12.8262C70.3878 12.414 69.9135 12.2102 69.2354 12.2102C68.5573 12.2102 68.083 12.414 67.8171 12.8262C67.5511 13.2384 67.4138 13.8545 67.4138 14.6745V15.2108Z" fill="#3E4852"/>
</g>
<defs>
<clipPath id="clip0_5845_20134">
<rect width="74" height="26.3627" fill="white"/>
</clipPath>
</defs>
</svg>
