<svg width="16" height="16" viewBox="0 0 16 16" fill="none" xmlns="http://www.w3.org/2000/svg">
<g clip-path="url(#clip0_0_1502)">
<path fill-rule="evenodd" clip-rule="evenodd" d="M10 2C10.3537 2 10.6928 2.14048 10.9429 2.39052C11.1929 2.64057 11.3334 2.97971 11.3334 3.33333V6H12.6667C13.0203 6 13.3595 6.14048 13.6095 6.39052C13.8596 6.64057 14 6.97971 14 7.33333V12.6667C14.1769 12.6667 14.3464 12.7369 14.4714 12.8619C14.5965 12.987 14.6667 13.1565 14.6667 13.3333C14.6667 13.5101 14.5965 13.6797 14.4714 13.8047C14.3464 13.9298 14.1769 14 14 14H2.00004C1.82323 14 1.65366 13.9298 1.52864 13.8047C1.40361 13.6797 1.33337 13.5101 1.33337 13.3333C1.33337 13.1565 1.40361 12.987 1.52864 12.8619C1.65366 12.7369 1.82323 12.6667 2.00004 12.6667V6C2.00004 5.64638 2.14052 5.30724 2.39057 5.05719C2.64061 4.80714 2.97975 4.66667 3.33337 4.66667H4.66671V3.33333C4.66671 2.97971 4.80718 2.64057 5.05723 2.39052C5.30728 2.14048 5.64642 2 6.00004 2H10ZM4.66671 6H3.33337V12.6667H4.66671V6ZM12.6667 7.33333H11.3334V12.6667H12.6667V7.33333ZM8.66671 10H7.33337V11.3333H8.66671V10ZM8.66671 7.33333H7.33337V8.66667H8.66671V7.33333ZM8.66671 4.66667H7.33337V6H8.66671V4.66667Z" fill="#8795A0"/>
</g>
<defs>
<clipPath id="clip0_0_1502">
<rect width="16" height="16" fill="white"/>
</clipPath>
</defs>
</svg>
