<svg width="66" height="122" viewBox="0 0 66 122" fill="none" xmlns="http://www.w3.org/2000/svg">
<g filter="url(#filter0_d_5926_24025)">
<path d="M8.65677 28.7888C8.65677 15.4464 19.4729 4.63034 32.8152 4.63034C46.1575 4.63034 56.9736 15.4464 56.9736 28.7888C56.9736 42.1311 46.1575 52.9472 32.8152 52.9472C19.4729 52.9472 8.65677 42.1311 8.65677 28.7888Z" fill="#60D669"/>
<path d="M43.4597 18.0835C42.0752 16.6855 40.4263 15.577 38.6092 14.8227C36.792 14.0683 34.8428 13.6832 32.8753 13.6897C24.6312 13.6897 17.9122 20.4088 17.9122 28.6528C17.9122 31.2952 18.6067 33.862 19.9052 36.1268L17.7914 43.8877L25.7184 41.8041C27.9077 42.9969 30.3689 43.6311 32.8753 43.6311C41.1194 43.6311 47.8384 36.912 47.8384 28.6679C47.8384 24.6667 46.2832 20.907 43.4597 18.0835ZM32.8753 41.0944C30.6406 41.0944 28.4513 40.4905 26.5337 39.358L26.0807 39.0863L21.3698 40.3244L22.6231 35.7343L22.3211 35.2662C21.0793 33.2838 20.42 30.9921 20.4186 28.6528C20.4186 21.7979 26.0052 16.2112 32.8602 16.2112C36.182 16.2112 39.3075 17.5098 41.6478 19.8652C42.8069 21.0186 43.7253 22.3906 44.35 23.9017C44.9746 25.4128 45.293 27.0328 45.2867 28.6679C45.3169 35.5229 39.7302 41.0944 32.8753 41.0944ZM39.7001 31.7934C39.3226 31.6122 37.4805 30.7063 37.1483 30.5704C36.801 30.4496 36.5595 30.3892 36.3028 30.7516C36.0461 31.1291 35.3364 31.9746 35.125 32.2162C34.9137 32.4729 34.6872 32.5031 34.3097 32.3068C33.9322 32.1256 32.7243 31.7179 31.305 30.4496C30.1877 29.4531 29.4478 28.2301 29.2213 27.8526C29.0099 27.4751 29.1911 27.2788 29.3874 27.0825C29.5535 26.9164 29.7649 26.6447 29.9461 26.4333C30.1273 26.2219 30.2028 26.0558 30.3236 25.8142C30.4444 25.5575 30.384 25.3461 30.2934 25.165C30.2028 24.9838 29.4478 23.1417 29.1458 22.3867C28.8439 21.662 28.5268 21.7526 28.3003 21.7375H27.5755C27.3189 21.7375 26.9263 21.8281 26.579 22.2056C26.2468 22.583 25.2805 23.489 25.2805 25.331C25.2805 27.1731 26.6243 28.9548 26.8055 29.1964C26.9867 29.4531 29.4478 33.2278 33.1924 34.8434C34.0832 35.236 34.7778 35.4625 35.3213 35.6286C36.2122 35.9155 37.0275 35.8702 37.6768 35.7796C38.4015 35.6739 39.8963 34.8736 40.1983 33.9979C40.5154 33.1221 40.5154 32.3823 40.4097 32.2162C40.304 32.0501 40.0775 31.9746 39.7001 31.7934Z" fill="white"/>
</g>
<g filter="url(#filter1_d_5926_24025)">
<path d="M8.65677 85.1584C8.65677 71.8161 19.4729 61 32.8152 61C46.1575 61 56.9736 71.8161 56.9736 85.1584C56.9736 98.5008 46.1575 109.317 32.8152 109.317C19.4729 109.317 8.65677 98.5008 8.65677 85.1584Z" fill="#B44734"/>
<path d="M29.0404 80.6287H29.0555M36.5899 80.6287H36.605M41.8746 73.0792C43.076 73.0792 44.2281 73.5564 45.0776 74.4059C45.9271 75.2554 46.4043 76.4076 46.4043 77.6089V89.6881C46.4043 90.8895 45.9271 92.0416 45.0776 92.8911C44.2281 93.7406 43.076 94.2178 41.8746 94.2178H34.3251L26.7756 98.7475V94.2178H23.7558C22.5544 94.2178 21.4023 93.7406 20.5528 92.8911C19.7033 92.0416 19.2261 90.8895 19.2261 89.6881V77.6089C19.2261 76.4076 19.7033 75.2554 20.5528 74.4059C21.4023 73.5564 22.5544 73.0792 23.7558 73.0792H41.8746Z" stroke="#F3C450" stroke-width="3" stroke-linecap="round" stroke-linejoin="round"/>
<path d="M29.0404 86.6683C29.5325 87.1705 30.1198 87.5695 30.768 87.8418C31.4161 88.1142 32.1121 88.2545 32.8152 88.2545C33.5183 88.2545 34.2143 88.1142 34.8624 87.8418C35.5106 87.5695 36.0979 87.1705 36.5899 86.6683" stroke="#F3C450" stroke-width="3" stroke-linecap="round" stroke-linejoin="round"/>
</g>
<defs>
<filter id="filter0_d_5926_24025" x="0" y="-2.49592e-05" width="65.6304" height="65.6304" filterUnits="userSpaceOnUse" color-interpolation-filters="sRGB">
<feFlood flood-opacity="0" result="BackgroundImageFix"/>
<feColorMatrix in="SourceAlpha" type="matrix" values="0 0 0 0 0 0 0 0 0 0 0 0 0 0 0 0 0 0 127 0" result="hardAlpha"/>
<feOffset dy="4"/>
<feGaussianBlur stdDeviation="4.3"/>
<feComposite in2="hardAlpha" operator="out"/>
<feColorMatrix type="matrix" values="0 0 0 0 0 0 0 0 0 0 0 0 0 0 0 0 0 0 0.2 0"/>
<feBlend mode="normal" in2="BackgroundImageFix" result="effect1_dropShadow_5926_24025"/>
<feBlend mode="normal" in="SourceGraphic" in2="effect1_dropShadow_5926_24025" result="shape"/>
</filter>
<filter id="filter1_d_5926_24025" x="0" y="56.3696" width="65.6304" height="65.6304" filterUnits="userSpaceOnUse" color-interpolation-filters="sRGB">
<feFlood flood-opacity="0" result="BackgroundImageFix"/>
<feColorMatrix in="SourceAlpha" type="matrix" values="0 0 0 0 0 0 0 0 0 0 0 0 0 0 0 0 0 0 127 0" result="hardAlpha"/>
<feOffset dy="4"/>
<feGaussianBlur stdDeviation="4.3"/>
<feComposite in2="hardAlpha" operator="out"/>
<feColorMatrix type="matrix" values="0 0 0 0 0 0 0 0 0 0 0 0 0 0 0 0 0 0 0.2 0"/>
<feBlend mode="normal" in2="BackgroundImageFix" result="effect1_dropShadow_5926_24025"/>
<feBlend mode="normal" in="SourceGraphic" in2="effect1_dropShadow_5926_24025" result="shape"/>
</filter>
</defs>
</svg>
