<svg width="16" height="16" viewBox="0 0 16 16" fill="none" xmlns="http://www.w3.org/2000/svg">
<g clip-path="url(#clip0_0_1399)">
<path fill-rule="evenodd" clip-rule="evenodd" d="M5.64333 6.862C5.76834 6.73702 5.93788 6.66681 6.11466 6.66681C6.29144 6.66681 6.46097 6.73702 6.58599 6.862L7.99999 8.276L9.41399 6.862C9.539 6.73691 9.70858 6.66659 9.88542 6.66653C10.0623 6.66647 10.2319 6.73666 10.357 6.86167C10.4821 6.98667 10.5524 7.15625 10.5525 7.3331C10.5525 7.50994 10.4823 7.67957 10.3573 7.80467L8.47133 9.69067C8.34631 9.81565 8.17677 9.88586 7.99999 9.88586C7.82322 9.88586 7.65368 9.81565 7.52866 9.69067L5.64333 7.80467C5.51835 7.67965 5.44814 7.51011 5.44814 7.33333C5.44814 7.15656 5.51835 6.98702 5.64333 6.862Z" fill="#B44734"/>
</g>
<defs>
<clipPath id="clip0_0_1399">
<rect width="16" height="16" fill="white"/>
</clipPath>
</defs>
</svg>
