<svg width="28" height="28" viewBox="0 0 28 28" fill="none" xmlns="http://www.w3.org/2000/svg">
<g clip-path="url(#clip0_0_1418)">
<path fill-rule="evenodd" clip-rule="evenodd" d="M14 2.33333C20.4435 2.33333 25.6667 7.5565 25.6667 14C25.6667 20.4435 20.4435 25.6667 14 25.6667C7.55651 25.6667 2.33334 20.4435 2.33334 14C2.33334 7.5565 7.55651 2.33333 14 2.33333ZM15.729 19.7633C14.5783 19.8573 13.4218 19.8573 12.271 19.7633C12.3795 20.2265 12.5008 20.6558 12.6327 21.049C12.9255 21.9298 13.251 22.5575 13.5543 22.9413C13.7025 23.1303 13.8227 23.2307 13.9043 23.2797L13.9638 23.3123L13.9988 23.3217L14.0362 23.3123L14.0957 23.2808C14.2311 23.1892 14.3495 23.0747 14.4457 22.9425C14.749 22.5575 15.0745 21.9298 15.3673 21.049C15.4992 20.6558 15.6205 20.2265 15.729 19.7633ZM5.60818 18.0892C6.66764 20.2582 8.52382 21.9342 10.7893 22.7675C10.6518 22.4463 10.528 22.1193 10.4183 21.7875C10.1638 21.0112 9.96118 20.2188 9.81168 19.4157C8.36757 19.1233 6.95853 18.6786 5.60818 18.0892ZM22.393 18.0892C21.0572 18.6725 19.6502 19.1193 18.1872 19.4157C18.0384 20.2194 17.8357 21.0122 17.5805 21.7887C17.4685 22.127 17.3448 22.456 17.2095 22.7663C19.4758 21.9334 21.3329 20.2574 22.393 18.088V18.0892ZM16.3053 12.6828C14.7751 12.8846 13.2249 12.8846 11.6947 12.6828C11.6281 14.25 11.6831 15.82 11.8592 17.3787C13.2818 17.5409 14.7182 17.5409 16.1408 17.3787C16.2702 16.2571 16.3345 15.129 16.3333 14C16.3333 13.552 16.324 13.1133 16.3053 12.6817V12.6828ZM5.32934 10.5373C4.75895 11.9638 4.55053 13.5094 4.72268 15.036C6.20847 15.8887 7.80527 16.5315 9.46751 16.9458C9.32407 15.3738 9.29522 13.7935 9.38118 12.2173C7.96511 11.8305 6.60368 11.266 5.32934 10.5373ZM22.6707 10.5373C21.3963 11.266 20.0349 11.8305 18.6188 12.2173C18.7048 13.7935 18.676 15.3739 18.5325 16.9458C20.1944 16.5314 21.7908 15.8887 23.2762 15.036C23.4481 13.5097 23.2397 11.9647 22.6695 10.5385L22.6707 10.5373ZM14.0187 4.68067L14.0058 4.67833L13.9825 4.68183L13.9382 4.69933C13.7889 4.79405 13.6584 4.91547 13.5532 5.0575C13.2498 5.4425 12.9255 6.07017 12.6315 6.94983C12.3165 7.8925 12.0622 9.04984 11.893 10.3553C13.291 10.5496 14.7091 10.5496 16.107 10.3553C15.9378 9.04867 15.6823 7.8925 15.3685 6.94983C15.0745 6.07017 14.7502 5.44133 14.4468 5.0575C14.3502 4.92566 14.2319 4.81124 14.0968 4.71917L14.0187 4.68067ZM10.7893 5.23367C9.05626 5.87061 7.55031 7.00596 6.46101 8.49683C7.44451 9.0615 8.49801 9.51883 9.60518 9.85367C9.79184 8.49567 10.0683 7.26017 10.4183 6.21133C10.5315 5.87183 10.6552 5.544 10.7893 5.23367ZM17.2107 5.23367C17.3448 5.544 17.4673 5.87183 17.5817 6.21133C17.9317 7.26133 18.2082 8.49567 18.3948 9.85367C19.491 9.52223 20.5459 9.06702 21.539 8.49683C20.4498 7.00591 18.9438 5.87055 17.2107 5.23367Z" fill="white"/>
</g>
<defs>
<clipPath id="clip0_0_1418">
<rect width="28" height="28" fill="white"/>
</clipPath>
</defs>
</svg>
