<svg width="178" height="29" viewBox="0 0 178 29" fill="none" xmlns="http://www.w3.org/2000/svg">
<rect width="72.4166" height="28.4581" rx="8" fill="white"/>
<g clip-path="url(#clip0_0_387)">
<path d="M47.203 4.19097C41.6354 4.19097 37.1176 8.68404 37.1176 14.2291C37.1176 19.7742 41.6312 24.2672 47.203 24.2672C52.7747 24.2672 57.2884 19.7742 57.2884 14.2291C57.2884 8.68404 52.7747 4.19097 47.203 4.19097ZM42.6398 17.4212C42.5943 17.4212 42.5447 17.4132 42.4951 17.4012C42.3546 17.361 42.2471 17.2687 42.1644 17.1321C41.7718 16.4536 41.532 15.7388 41.4411 14.988C41.3956 14.6106 41.3874 14.2371 41.4122 13.8717C41.4618 13.1972 41.623 12.5588 41.8958 11.9525C42.0694 11.571 42.2802 11.2217 42.5199 10.8964C42.5364 10.8724 42.5571 10.8442 42.5736 10.8202C43.0283 10.2098 43.5946 9.70793 44.2807 9.32247C45.2025 8.80048 46.1614 8.53949 47.1493 8.53949C47.4841 8.53949 47.8189 8.5676 48.1619 8.62783C49.0713 8.77238 49.8938 9.11769 50.6254 9.66376C50.6461 9.67982 50.6667 9.69187 50.6874 9.70793C51.1421 10.0452 51.5347 10.4427 51.8613 10.9005C52.1465 11.2859 52.3862 11.7035 52.5681 12.1532C52.8533 12.8519 52.9897 13.5867 52.969 14.3455C52.9525 15.1245 52.7954 15.8553 52.4978 16.5379C52.3573 16.8671 52.1795 17.1763 51.9729 17.4734C51.9109 17.5658 51.8489 17.6581 51.7786 17.7505C51.3281 18.3488 50.7618 18.8426 50.0881 19.2482L50.0426 19.2763C50.0013 19.3004 49.9062 19.3325 49.7739 19.3927C49.6251 19.469 49.4722 19.5413 49.3151 19.6055C48.6166 19.8906 47.8726 20.0231 47.0873 20.0231H47.0335C46.9798 20.0231 46.8599 19.995 46.6698 19.979C46.4838 19.9629 46.2441 19.9027 45.9589 19.8224C45.9093 19.8103 45.8555 19.7862 45.8059 19.7702C46.0457 19.473 46.2689 19.1478 46.3805 18.8748C46.6202 18.9149 46.8641 18.943 47.1162 18.951C47.2237 18.951 47.3311 18.947 47.4386 18.939C47.5461 18.931 47.6453 18.927 47.7321 18.927C48.1371 18.8788 48.5215 18.7784 48.8853 18.6379V18.6298C49.0878 18.5495 49.2903 18.4572 49.4929 18.3488C49.5342 18.3247 49.5755 18.3006 49.6169 18.2765C49.6871 18.2323 49.7574 18.1881 49.8235 18.14C49.8814 18.0998 49.931 18.0637 49.9847 18.0316C50.2327 17.8509 50.4642 17.6501 50.6709 17.4252L50.6915 17.4052C50.7205 17.3731 50.7494 17.3369 50.7783 17.3008C50.9395 17.1121 51.0842 16.9153 51.2082 16.7065C51.4975 16.2207 51.7001 15.7107 51.8075 15.1687C51.9191 14.6266 51.9274 14.0765 51.8406 13.5184C51.7538 12.9603 51.5637 12.4263 51.2743 11.9163C50.9313 11.3542 50.5138 10.8844 50.0137 10.511C49.5135 10.1376 48.9721 9.87256 48.3893 9.72399C47.9883 9.61959 47.575 9.5674 47.1493 9.5674C47.017 9.5674 46.8847 9.57141 46.7525 9.58346C46.7111 9.58747 46.6698 9.5955 46.6285 9.60353C46.0581 9.67581 45.5207 9.84445 45.0165 10.1014C44.5163 10.3584 44.0782 10.6957 43.702 11.1012C43.3342 11.4987 43.0283 11.9605 42.8051 12.4744L42.7803 12.5266L42.7679 12.5588C42.6687 12.8077 42.5943 13.0647 42.5406 13.3297C42.429 13.8717 42.4083 14.4339 42.491 15.0041C42.5778 15.5742 42.7596 16.1163 43.0655 16.6182L43.0779 16.6423C43.2556 16.9314 43.1688 17.1763 42.8919 17.3409C42.801 17.3931 42.7142 17.4212 42.6232 17.4212M47.1782 15.2048C46.6367 15.2048 46.1986 14.7712 46.1986 14.2331C46.1986 13.6951 46.6367 13.2614 47.1782 13.2614C47.7197 13.2614 48.1578 13.6951 48.1578 14.2331C48.1578 14.7712 47.7197 15.2048 47.1782 15.2048Z" fill="#E2E1E1"/>
<path d="M46.7814 15.7146C46.3639 15.6102 46.0456 15.3612 45.8555 14.9999C45.6736 14.6867 45.6116 14.3333 45.6819 13.98C45.7521 13.6226 45.934 13.3215 46.2234 13.0846L46.2978 13.0324L46.4135 12.9641C46.7607 12.7594 47.1616 12.7032 47.5708 12.8075C47.98 12.9119 48.3024 13.1488 48.5091 13.4942L48.5298 13.5303C48.7034 13.8756 48.753 14.2249 48.6744 14.5743C48.6042 14.8955 48.4388 15.1725 48.1826 15.3934C48.1206 15.4656 48.042 15.5259 47.9552 15.5821L47.918 15.6022C47.6948 15.7146 47.4551 15.7708 47.2071 15.7708C47.0666 15.7708 46.926 15.7547 46.7855 15.7186M46.0084 5.06212C44.8056 5.21872 43.6441 5.61221 42.5529 6.23859C41.4493 6.86899 40.5152 7.68408 39.7753 8.65577C39.0313 9.6355 38.494 10.7116 38.1757 11.8559C37.8575 12.9963 37.7665 14.1928 37.9112 15.4054C38.0517 16.614 38.4403 17.7865 39.0644 18.8907C39.3289 19.3323 39.6761 19.7017 40.0853 19.9748C40.5069 20.2558 40.9699 20.4526 41.4576 20.557C41.9495 20.6654 42.462 20.6815 42.9787 20.6132C43.4871 20.5449 43.9707 20.3763 44.4253 20.1113L44.6775 19.9627C44.7353 19.9266 44.7849 19.8945 44.8221 19.8583L44.8511 19.8342C45.2933 19.4849 45.6406 19.0754 45.8803 18.6136L46.0787 18.2362L46.5044 18.3084C47.4675 18.4691 48.3686 18.3125 49.2572 17.8266C49.3234 17.7865 49.3978 17.7383 49.468 17.6901C49.559 17.6259 49.6458 17.5696 49.7243 17.5215C50.1252 17.2123 50.4518 16.8469 50.6998 16.4373C50.956 16.0157 51.1379 15.558 51.2371 15.0882C51.3363 14.6184 51.3487 14.1326 51.2743 13.6427C51.1999 13.1569 51.0346 12.6831 50.7824 12.2334C50.4931 11.7515 50.1211 11.3299 49.6871 11.0007C49.2531 10.6714 48.7778 10.4385 48.2776 10.306C47.7692 10.1735 47.2319 10.1334 46.6822 10.1976C46.1448 10.2579 45.6199 10.4345 45.128 10.7236L44.8759 10.8722C44.8139 10.9083 44.7519 10.9525 44.6899 11.0047L44.6733 11.0167C44.2765 11.3219 43.9417 11.6873 43.6813 12.1009C43.4209 12.5144 43.2391 12.9641 43.1399 13.4339C43.0407 13.9077 43.0283 14.3976 43.0985 14.8995C43.1688 15.3894 43.3383 15.8591 43.5987 16.2928L43.64 16.3691C43.9087 16.9473 43.7433 17.5054 43.206 17.8226C42.9249 17.9872 42.6191 18.0274 42.3173 17.939C42.0363 17.8547 41.8048 17.67 41.6477 17.409C41.2179 16.6542 40.9533 15.8551 40.8583 15.028C40.7632 14.2049 40.8252 13.3898 41.0484 12.6148C41.2675 11.8439 41.6312 11.1171 42.1313 10.4506C42.6356 9.78005 43.2763 9.22594 44.0285 8.80032C45.5496 7.95311 47.1699 7.7403 48.8439 8.17796C49.6664 8.3988 50.4146 8.76419 51.08 9.26609C51.7496 9.768 52.2994 10.3944 52.7168 11.1252C53.1384 11.864 53.4071 12.651 53.5146 13.458C53.622 14.2731 53.5559 15.1003 53.3162 15.9234C53.0971 16.7224 52.7003 17.4371 52.2374 18.1157C51.1958 19.6375 50.7618 20.5209 47.1492 23.4721C47.1492 23.4721 48.1702 23.4199 48.6124 23.3436C49.2242 23.2392 49.7698 23.1147 50.2244 22.9742C50.675 22.8336 51.0428 22.6971 51.3115 22.5646C51.6835 22.3839 51.8116 22.3157 51.8571 22.2876C52.2043 22.0828 52.5432 21.8539 52.8656 21.609C54.5397 20.3562 55.6639 18.706 56.2137 16.7023C56.5485 15.5018 56.6353 14.2892 56.4782 13.1007C56.3211 11.9081 55.9285 10.7517 55.3126 9.65959C54.7009 8.57547 53.899 7.65598 52.9276 6.92922C51.9522 6.19844 50.8444 5.65236 49.6416 5.31508C48.8232 5.09424 47.9966 4.98182 47.1782 4.98182C46.7896 4.98182 46.4011 5.00591 46.0126 5.05811" fill="url(#paint0_linear_0_387)"/>
<path d="M32.5421 12.2997C32.5421 12.5326 32.6 12.6972 32.7116 12.7976C32.8232 12.898 32.9968 12.9502 33.2324 12.9502C33.4804 12.9502 33.6623 12.898 33.7739 12.7976C33.8855 12.6972 33.9433 12.5286 33.9433 12.2997V10.0632C33.9433 9.83032 33.8855 9.66569 33.7739 9.56531C33.6581 9.46493 33.4804 9.41273 33.2324 9.41273C32.9968 9.41273 32.8232 9.46493 32.7116 9.56531C32.6 9.66569 32.5421 9.83433 32.5421 10.0632V12.2997ZM32.0255 10.0752C32.0255 9.68978 32.1288 9.40068 32.3313 9.20795C32.5339 9.0112 32.8356 8.91484 33.2324 8.91484C33.6292 8.91484 33.9309 9.0112 34.1417 9.20795C34.3525 9.4047 34.46 9.6938 34.46 10.0752V12.2997C34.46 13.0666 34.0508 13.4521 33.2324 13.4521C32.9017 13.4521 32.6331 13.3798 32.4264 13.2352C32.2197 13.0907 32.0833 12.8618 32.0255 12.5527H31.1905V12.0548H32.0255V10.0793V10.0752ZM29.0742 11.7255C29.19 11.5729 29.2974 11.4404 29.3925 11.328C29.4876 11.2156 29.5785 11.1112 29.6653 11.0148C29.7521 10.9184 29.843 10.8221 29.934 10.7337C30.0249 10.6414 30.1241 10.549 30.2233 10.4446C30.1861 10.1315 30.0621 9.88653 29.843 9.70183C29.6281 9.51712 29.3677 9.42477 29.0701 9.42477C28.7725 9.42477 28.5121 9.51712 28.2972 9.70183C28.0822 9.88653 27.9541 10.1355 27.9169 10.4446C28.0202 10.545 28.1153 10.6414 28.2062 10.7337C28.2972 10.8261 28.3881 10.9184 28.4749 11.0148C28.5617 11.1112 28.6526 11.2156 28.7477 11.328C28.8428 11.4404 28.9502 11.5729 29.066 11.7255M29.6818 12.5527C29.4338 12.5527 29.2272 12.4804 29.066 12.3358C28.9048 12.4804 28.7022 12.5527 28.4501 12.5527H26.5653V12.0548H28.694C28.4956 11.8098 28.3013 11.585 28.1112 11.3882C27.921 11.1915 27.6854 10.9706 27.4002 10.7297V10.6334C27.4002 10.3804 27.4416 10.1475 27.5201 9.93873C27.5986 9.72993 27.7144 9.54925 27.8673 9.39667C28.0161 9.24409 28.1938 9.12765 28.4005 9.04333C28.603 8.959 28.8262 8.91885 29.0701 8.91885C29.314 8.91885 29.533 8.959 29.7397 9.04333C29.9464 9.12765 30.12 9.24409 30.2729 9.39667C30.4217 9.54925 30.5374 9.72993 30.6201 9.93873C30.6986 10.1475 30.74 10.3804 30.74 10.6334V10.7297C30.4548 10.9706 30.215 11.1875 30.0249 11.3882C29.8348 11.589 29.6405 11.8098 29.4421 12.0548H31.2401V12.5527H29.6818ZM26.1933 12.9341C26.1933 13.1349 26.1768 13.3115 26.1478 13.4601C26.1189 13.6087 26.0652 13.7412 25.9949 13.8576C25.9205 13.9741 25.8213 14.0785 25.6932 14.1788C25.565 14.2752 25.408 14.3756 25.2178 14.476L24.8541 14.0182C25.0153 13.946 25.1476 13.8777 25.255 13.8134C25.3625 13.7492 25.4452 13.6769 25.5072 13.5966C25.5692 13.5163 25.6146 13.428 25.6394 13.3236C25.6642 13.2232 25.6766 13.0947 25.6766 12.9421V8.94294H26.1933V12.0508H26.619V12.5486H26.1933V12.9301V12.9341ZM22.2335 11.4364C22.2335 11.6532 22.2749 11.8098 22.3534 11.9102C22.4319 12.0066 22.5766 12.0548 22.7792 12.0548H23.6348V9.44887H22.7792C22.5725 9.44887 22.4319 9.49705 22.3534 9.59341C22.2749 9.68978 22.2335 9.85039 22.2335 10.0672V11.4364ZM21.7169 10.0913C21.7169 9.33242 22.0765 8.95097 22.7916 8.95097H24.1514V12.6651C24.1514 12.9341 24.1266 13.175 24.0729 13.3878C24.0192 13.6006 23.9324 13.7853 23.8084 13.9379C23.6844 14.0905 23.5149 14.215 23.3 14.3073C23.085 14.3997 22.8081 14.4599 22.4733 14.48L22.1426 14.0343C22.6552 14.0182 23.0313 13.9178 23.271 13.7291C23.5108 13.5404 23.6348 13.2393 23.6348 12.8297V12.5567H22.7916C22.0765 12.5567 21.7169 12.1752 21.7169 11.4163V10.0913ZM19.1625 7.65806C19.1625 7.56571 19.1955 7.48541 19.2617 7.41715C19.3278 7.3529 19.4063 7.32078 19.5014 7.32078C19.5965 7.32078 19.6791 7.3529 19.7411 7.41715C19.8073 7.48139 19.8403 7.5617 19.8403 7.65806C19.8403 7.75443 19.8073 7.83072 19.7411 7.89496C19.675 7.95921 19.5965 7.99133 19.5014 7.99133C19.4063 7.99133 19.3278 7.95921 19.2617 7.89496C19.1955 7.83072 19.1625 7.75041 19.1625 7.65806ZM18.7698 12.0548H19.6254C19.8279 12.0548 19.9726 12.0066 20.0553 11.9102C20.1338 11.8139 20.1751 11.6532 20.1751 11.4364V9.44887H19.3195C19.1129 9.44887 18.9723 9.49705 18.8938 9.59341C18.8111 9.68978 18.7739 9.85039 18.7739 10.0672V12.0548H18.7698ZM15.6326 11.4364C15.6326 11.6532 15.6739 11.8098 15.7525 11.9102C15.831 12.0066 15.9757 12.0548 16.1782 12.0548H18.2531V10.0873C18.2531 9.32841 18.6127 8.94696 19.3278 8.94696H20.6877V11.4123C20.6877 12.1712 20.3281 12.5527 19.613 12.5527H16.203C15.4879 12.5527 15.1283 12.1712 15.1283 11.4123V10.4125L15.645 10.0873V11.4324L15.6326 11.4364Z" fill="#121212"/>
<path d="M17.7322 17.122L17.7818 16.4715L16.9593 18.9329C16.9097 19.0694 16.7857 19.1618 16.641 19.1618C16.5336 19.1618 16.3972 19.0895 16.331 18.953L15.5374 16.4193L15.587 17.118V20.7116H15.1282V16.0901C15.1199 15.6042 15.7771 15.6123 15.8764 15.9977C16.1864 16.9333 16.36 17.7243 16.6328 18.6598C16.9262 17.7845 17.166 16.8249 17.447 15.9777C17.5834 15.5721 18.1745 15.5842 18.1952 16.078V20.7157H17.7364V20.6875H17.7281V17.122H17.7322Z" fill="#121212"/>
<path d="M20.3156 16.1062L20.328 16.1704C20.328 16.1704 20.328 16.1503 20.3363 16.1343L20.3156 16.1062ZM20.328 16.1704L19.7369 18.5033H20.8695L20.328 16.1704ZM20.9852 18.961H19.6295C19.3856 19.8966 19.2616 20.3463 19.1748 20.7157H18.6788L19.8899 16.0138C19.9602 15.7849 20.1503 15.6645 20.3156 15.6645C20.481 15.6645 20.667 15.801 20.7248 16.0058L21.9566 20.7117H21.444L20.9811 18.957L20.9852 18.961Z" fill="#121212"/>
<path d="M22.8907 16.1784V18.3105H23.7132C24.0893 18.3105 24.5357 18.0094 24.5357 17.6199V16.857C24.5357 16.4876 24.2423 16.1784 23.8496 16.1784H22.8907ZM22.8907 16.1784V16.1503C22.8907 16.1503 22.8741 16.1784 22.8535 16.1784H22.8907ZM22.8411 15.7167H23.8496C24.5109 15.7167 25.0028 16.2025 25.0028 16.857V17.6199C25.0028 17.9692 24.6639 18.4832 24.2257 18.5394C24.7093 18.6037 25.0235 19.1176 25.0235 19.475V20.7157H24.5564V19.475C24.5564 19.0775 24.0893 18.7763 23.7132 18.7763H22.8907V20.7157H22.4277V16.1303C22.4277 15.8893 22.5931 15.7167 22.8369 15.7167" fill="#121212"/>
<path d="M26.0734 19.5795C26.0734 20.0493 26.4991 20.2942 26.9373 20.2942C27.3754 20.2942 27.7929 20.0533 27.7929 19.5795V16.8491C27.7929 16.3874 27.3671 16.1424 26.9373 16.1424C26.5074 16.1424 26.0734 16.3833 26.0734 16.8491V19.5795ZM25.6104 16.8491C25.6104 16.0701 26.2677 15.6807 26.9373 15.6807C27.6069 15.6807 28.2641 16.0742 28.2641 16.8491V19.5795C28.2641 20.3625 27.6027 20.7559 26.9373 20.7559C26.2718 20.7559 25.6104 20.3625 25.6104 19.5795V16.8491Z" fill="#121212"/>
<path d="M29.3965 19.5795C29.3965 20.0493 29.8222 20.2942 30.2604 20.2942C30.6985 20.2942 31.116 20.0533 31.116 19.5795V16.8491C31.116 16.3874 30.6902 16.1424 30.2604 16.1424C29.8305 16.1424 29.3965 16.3833 29.3965 16.8491V19.5795ZM28.9336 16.8491C28.9336 16.0701 29.5908 15.6807 30.2604 15.6807C30.93 15.6807 31.5872 16.0742 31.5872 16.8491V19.5795C31.5872 20.3625 30.9258 20.7559 30.2604 20.7559C29.5949 20.7559 28.9336 20.3625 28.9336 19.5795V16.8491Z" fill="#121212"/>
<path d="M34.4683 16.1865L32.7323 16.2026V17.9211H34.3526V18.3829H32.7323V20.7157H32.2652V16.1303C32.2652 15.8934 32.476 15.7248 32.6827 15.7248H34.4683V16.1865Z" fill="#121212"/>
</g>
<rect x="84.4624" width="93.5376" height="28.4581" rx="8" fill="#75348A"/>
<path fill-rule="evenodd" clip-rule="evenodd" d="M96.8433 16.7445C96.8093 17.0166 96.7413 17.2547 96.6393 17.4361C96.5372 17.6175 96.4012 17.7762 96.2538 17.8896C96.1064 18.003 95.9363 18.071 95.7549 18.1277C95.5735 18.1731 95.3694 18.1957 95.1653 18.1957C94.9612 18.1957 94.7798 18.1844 94.6098 18.1277C94.4397 18.0824 94.2923 18.0143 94.1563 17.8896C94.0429 17.7876 93.9408 17.6515 93.8728 17.4701C93.8048 17.3001 93.8048 17.0846 93.8275 16.8465C93.8388 16.6991 93.8955 16.5291 93.9635 16.325C94.0315 16.1209 94.1336 15.9168 94.2696 15.7354L94.9046 15.9735C94.8592 16.0756 94.8252 16.1549 94.7912 16.223C94.7572 16.291 94.7232 16.359 94.7118 16.427C94.7005 16.4951 94.6778 16.5631 94.6665 16.6084C94.6551 16.6765 94.6324 16.7445 94.6324 16.7898C94.6211 16.9259 94.6211 17.0393 94.6438 17.1413C94.6778 17.2434 94.7232 17.3114 94.7912 17.3794C94.8592 17.4248 94.9386 17.4815 95.0293 17.4928C95.1086 17.5041 95.2107 17.5268 95.3014 17.5268C95.5395 17.5268 95.7209 17.4588 95.8569 17.3454C95.993 17.232 96.0724 17.0279 96.1064 16.7558L96.5712 13.0937H97.3195L96.8433 16.7445Z" fill="white"/>
<path fill-rule="evenodd" clip-rule="evenodd" d="M98.8842 16.9261C98.8728 17.0281 98.8502 17.1075 98.8502 17.1642C98.8388 17.2095 98.8388 17.2322 98.8161 17.2322C98.6461 17.2322 98.476 17.2209 98.3286 17.1982C98.1812 17.1868 98.0452 17.1301 97.9318 17.0621C97.8184 16.9941 97.7277 16.9147 97.6597 16.79C97.6143 16.6766 97.5917 16.5406 97.6143 16.3818L98.0338 13.1505H98.7821L98.3966 16.1324C98.3853 16.2118 98.3853 16.3025 98.3966 16.3705C98.408 16.4385 98.442 16.4839 98.476 16.5179C98.51 16.5519 98.5554 16.5633 98.6121 16.5859C98.6574 16.5973 98.7254 16.5973 98.7821 16.5973C98.8275 16.5973 98.8615 16.6313 98.8615 16.6766C98.9068 16.7447 98.9068 16.8013 98.8842 16.9261Z" fill="white"/>
<path fill-rule="evenodd" clip-rule="evenodd" d="M100.744 15.3387C100.642 15.3387 100.562 15.3727 100.471 15.4181C100.392 15.4634 100.324 15.5315 100.267 15.6335C100.199 15.7129 100.154 15.8149 100.12 15.9396C100.075 16.053 100.041 16.1777 100.018 16.3251C100.12 16.4272 100.199 16.4952 100.29 16.5405C100.369 16.5859 100.471 16.6086 100.596 16.6086C100.744 16.6086 100.88 16.5632 100.982 16.4385C101.084 16.3365 101.152 16.1891 101.163 16.019C101.197 15.8036 101.163 15.6335 101.095 15.5088C101.027 15.4067 100.914 15.3387 100.744 15.3387ZM98.8161 17.2321C98.7368 17.2321 98.6688 17.2208 98.6121 17.1641C98.5667 17.1188 98.5667 17.0507 98.5667 16.9487C98.578 16.8467 98.6007 16.7673 98.6461 16.7106C98.6801 16.6653 98.7254 16.6312 98.7935 16.6312H98.9409C99.0089 16.6312 99.0769 16.6199 99.1109 16.5972C99.1563 16.5632 99.1903 16.5292 99.2243 16.4952C99.2583 16.4498 99.2697 16.3931 99.2923 16.3478C99.3037 16.2798 99.3377 16.2117 99.3604 16.1324C99.3944 15.9283 99.4624 15.7469 99.5418 15.5768C99.6211 15.4067 99.7232 15.2594 99.8592 15.1346C99.9726 15.0213 100.131 14.9192 100.279 14.8512C100.449 14.7832 100.619 14.7491 100.8 14.7491C101.004 14.7491 101.186 14.7832 101.333 14.8512C101.481 14.9192 101.617 14.9986 101.696 15.1233C101.798 15.2367 101.866 15.3727 101.9 15.5315C101.934 15.6789 101.934 15.8489 101.911 16.0417C101.9 16.1097 101.9 16.1777 101.877 16.2457C101.866 16.3138 101.843 16.3591 101.832 16.4272C101.866 16.4952 101.934 16.5632 102.013 16.5972C102.093 16.6426 102.195 16.6653 102.297 16.6653C102.342 16.6653 102.376 16.6993 102.376 16.7446C102.388 16.79 102.388 16.8807 102.376 16.9827C102.365 17.0507 102.365 17.0961 102.365 17.1528C102.365 17.1868 102.354 17.2208 102.354 17.2548C102.354 17.2662 102.342 17.2888 102.342 17.2888C102.342 17.2888 102.342 17.3002 102.331 17.3002C102.263 17.3002 102.218 17.3002 102.127 17.2888C102.059 17.2775 101.991 17.2548 101.911 17.2435C101.843 17.2095 101.775 17.1755 101.707 17.1301C101.639 17.0848 101.594 17.0167 101.537 16.9487C101.39 17.0848 101.231 17.1868 101.072 17.2548C100.902 17.3229 100.732 17.3342 100.551 17.3342C100.381 17.3342 100.233 17.3228 100.097 17.2662C99.9613 17.2208 99.8252 17.1301 99.7005 17.0167C99.5985 17.1301 99.4851 17.1981 99.383 17.2548C99.281 17.2888 99.1449 17.3228 98.9635 17.3228H98.8161V17.2321Z" fill="white"/>
<path fill-rule="evenodd" clip-rule="evenodd" d="M102.32 17.2322C102.218 17.2322 102.149 17.2209 102.115 17.1642C102.081 17.1188 102.07 17.0508 102.07 16.9488C102.081 16.8467 102.104 16.7674 102.149 16.7107C102.183 16.6653 102.229 16.6313 102.297 16.6313H102.796C102.75 16.5293 102.716 16.4272 102.682 16.3138C102.671 16.2118 102.648 16.0984 102.671 15.9964C102.705 15.7923 102.75 15.6109 102.852 15.4408C102.954 15.2708 103.068 15.1574 103.204 15.0553C103.34 14.9533 103.51 14.8739 103.669 14.8172C103.839 14.7719 104.02 14.7379 104.202 14.7379C104.338 14.7379 104.485 14.7492 104.621 14.7719C104.769 14.7832 104.893 14.8172 104.973 14.8513L104.769 15.4408C104.723 15.4295 104.632 15.4068 104.53 15.3955C104.428 15.3841 104.315 15.3841 104.213 15.3841C104.134 15.3841 104.066 15.3955 103.964 15.4181C103.884 15.4295 103.793 15.4635 103.725 15.5202C103.646 15.5655 103.589 15.6336 103.521 15.7016C103.476 15.781 103.419 15.883 103.419 16.0077C103.385 16.2118 103.431 16.3592 103.555 16.4839C103.669 16.5973 103.839 16.654 104.077 16.654H104.825L104.746 17.2776H102.308V17.2322H102.32Z" fill="white"/>
<path fill-rule="evenodd" clip-rule="evenodd" d="M106.413 13.0937C106.379 12.9917 106.367 12.9123 106.367 12.8216C106.379 12.6516 106.469 12.5155 106.583 12.4135C106.696 12.3114 106.866 12.2661 107.047 12.2661C107.093 12.2661 107.149 12.2661 107.195 12.2774C107.24 12.2774 107.308 12.2888 107.365 12.3114L107.252 12.6176C107.184 12.5835 107.104 12.5835 107.013 12.5835C106.911 12.5835 106.832 12.5949 106.775 12.6516C106.73 12.6969 106.696 12.7536 106.673 12.833C106.651 12.9123 106.685 12.9804 106.741 13.0371C106.787 13.0824 106.877 13.1051 106.979 13.1051H107.32L107.286 13.4225H106.163L106.197 13.1051H106.413V13.0937ZM106.31 13.7627H107.059L106.719 16.3364H105.97L106.31 13.7627ZM108.023 16.8579C107.92 16.994 107.784 17.0733 107.637 17.1414C107.49 17.1867 107.297 17.2207 107.081 17.2207H105.324L105.403 16.5972H106.843C107.059 16.5972 107.229 16.5518 107.331 16.4498C107.433 16.3477 107.501 16.1777 107.535 15.9282L107.886 13.1391H108.635L108.272 16.0643C108.261 16.2343 108.283 16.3477 108.385 16.4498C108.487 16.5518 108.623 16.5972 108.816 16.5972C108.862 16.5972 108.918 16.6085 108.93 16.6652C108.941 16.7105 108.941 16.7786 108.941 16.9033C108.93 17.0393 108.907 17.1187 108.896 17.1527C108.884 17.1867 108.862 17.2207 108.85 17.2207C108.782 17.2207 108.703 17.2207 108.612 17.2094C108.521 17.1981 108.442 17.1754 108.374 17.1414C108.306 17.1074 108.238 17.0733 108.17 17.028C108.125 16.994 108.068 16.926 108.023 16.8579Z" fill="white"/>
<path fill-rule="evenodd" clip-rule="evenodd" d="M108.827 16.6085C108.941 16.6085 109.043 16.5972 109.111 16.5745C109.19 16.5632 109.247 16.5292 109.292 16.4725C109.338 16.4271 109.372 16.3704 109.394 16.3251C109.406 16.2571 109.428 16.189 109.44 16.1097L109.803 13.1618H110.551L110.165 16.2457C110.154 16.4158 110.097 16.5632 110.052 16.6879C110.007 16.8013 109.916 16.9033 109.814 16.994C109.712 17.0734 109.576 17.1414 109.417 17.1754C109.247 17.2094 109.066 17.2435 108.827 17.2435C108.748 17.2435 108.68 17.2321 108.623 17.1754C108.578 17.1301 108.578 17.0621 108.578 16.96C108.589 16.858 108.612 16.7786 108.657 16.7219C108.725 16.6426 108.771 16.6085 108.827 16.6085Z" fill="white"/>
<path fill-rule="evenodd" clip-rule="evenodd" d="M113.794 18.6153C113.805 18.5019 113.862 18.4112 113.941 18.3318C114.02 18.2638 114.122 18.2184 114.247 18.2184C114.36 18.2184 114.451 18.2524 114.519 18.3318C114.587 18.3998 114.598 18.5019 114.587 18.6153C114.576 18.7286 114.519 18.8307 114.44 18.8987C114.36 18.9667 114.258 19.0121 114.156 19.0121C114.043 19.0121 113.952 18.9781 113.884 18.8987C113.805 18.8193 113.771 18.74 113.794 18.6153ZM112.818 18.6153C112.83 18.5019 112.886 18.4112 112.966 18.3318C113.045 18.2638 113.147 18.2184 113.272 18.2184C113.385 18.2184 113.476 18.2524 113.544 18.3318C113.612 18.3998 113.623 18.5019 113.612 18.6153C113.601 18.7286 113.544 18.8307 113.465 18.8987C113.385 18.9667 113.283 19.0121 113.181 19.0121C113.068 19.0121 112.977 18.9781 112.909 18.8987C112.841 18.8193 112.807 18.74 112.818 18.6153ZM112.909 16.3704C112.875 16.6198 112.954 16.8239 113.147 16.9486C113.329 17.0846 113.612 17.13 114.02 17.13C114.202 17.13 114.372 17.1187 114.519 17.096C114.667 17.0733 114.791 17.0506 114.905 17.0166C115.007 16.9826 115.086 16.9373 115.154 16.8806C115.199 16.8352 115.233 16.7785 115.256 16.7445C115.256 16.6765 115.222 16.6084 115.12 16.5291C115.018 16.4497 114.871 16.359 114.667 16.2456C114.451 16.1323 114.281 15.9962 114.179 15.8602C114.077 15.7241 114.043 15.5427 114.066 15.3386C114.077 15.2026 114.134 15.0665 114.202 14.9304C114.27 14.8171 114.372 14.6923 114.485 14.5903C114.598 14.4883 114.757 14.4202 114.916 14.3749C115.086 14.3295 115.279 14.2955 115.483 14.2955C115.528 14.2955 115.585 14.2955 115.63 14.2955C115.676 14.2955 115.744 14.3069 115.812 14.3069C115.88 14.3182 115.925 14.3182 115.993 14.3409C116.038 14.3522 116.095 14.3749 116.14 14.3862L115.936 14.9418C115.891 14.9304 115.823 14.9078 115.732 14.8964C115.653 14.8851 115.551 14.8851 115.46 14.8851C115.392 14.8851 115.324 14.8851 115.256 14.8964C115.188 14.9078 115.109 14.9304 115.041 14.9645C114.973 14.9985 114.905 15.0325 114.871 15.0778C114.825 15.1232 114.803 15.1912 114.791 15.2592C114.791 15.3046 114.791 15.3613 114.825 15.4066C114.859 15.452 114.893 15.5087 114.939 15.554C114.984 15.5994 115.052 15.6561 115.12 15.6901C115.188 15.7354 115.256 15.7694 115.335 15.8035C115.437 15.8488 115.517 15.9168 115.608 15.9735C115.687 16.0189 115.755 16.0869 115.823 16.1549C115.868 16.223 115.925 16.291 115.959 16.3704C115.993 16.4497 115.993 16.5404 115.993 16.6425C115.982 16.8125 115.914 16.9486 115.812 17.0846C115.71 17.2207 115.574 17.3341 115.415 17.4248C115.245 17.5268 115.029 17.5949 114.791 17.6402C114.553 17.6856 114.27 17.7196 113.975 17.7196C113.657 17.7196 113.385 17.7082 113.159 17.6515C112.92 17.6062 112.728 17.5155 112.558 17.4134C112.388 17.3001 112.286 17.164 112.206 16.9939C112.138 16.8239 112.127 16.6085 112.161 16.3704C112.172 16.2343 112.229 16.0869 112.297 15.8828C112.365 15.7014 112.467 15.4973 112.603 15.2933L113.238 15.5427C113.17 15.6787 113.102 15.8148 113.034 15.9622C112.954 16.1323 112.909 16.2456 112.909 16.3704Z" fill="white"/>
<path fill-rule="evenodd" clip-rule="evenodd" d="M117.388 16.6085C117.569 16.6085 117.705 16.5745 117.784 16.4951C117.886 16.4271 117.932 16.291 117.966 16.087L117.977 15.9509C117.989 15.7695 117.966 15.6108 117.841 15.5314C117.728 15.4294 117.558 15.384 117.32 15.384H116.798L116.877 14.7604H117.546C117.784 14.7604 117.966 14.7944 118.136 14.8398C118.306 14.8851 118.419 14.9758 118.521 15.0552C118.623 15.1572 118.691 15.2593 118.725 15.3953C118.76 15.5314 118.771 15.6675 118.759 15.8148L118.714 16.189C118.669 16.5631 118.567 16.8353 118.397 16.9826C118.227 17.1527 117.966 17.2321 117.614 17.2321H116.254L116.333 16.6085H117.388Z" fill="white"/>
<path fill-rule="evenodd" clip-rule="evenodd" d="M120.063 15.9735C120.029 16.1776 120.063 16.3476 120.143 16.4497C120.222 16.5517 120.358 16.5971 120.562 16.5971H120.993L121.072 15.9508C121.084 15.8714 121.084 15.7807 121.072 15.7127C121.072 15.6447 121.038 15.5766 121.027 15.5086C120.993 15.4406 120.959 15.4066 120.891 15.3726C120.846 15.3386 120.755 15.3272 120.687 15.3272C120.619 15.3272 120.551 15.3386 120.483 15.3612C120.415 15.3726 120.347 15.4293 120.301 15.4746C120.256 15.52 120.199 15.588 120.154 15.6787C120.097 15.7694 120.063 15.8601 120.063 15.9735ZM120.165 17.5835C120.279 17.5835 120.369 17.5835 120.472 17.5721C120.551 17.5608 120.642 17.5381 120.687 17.5268C120.755 17.4928 120.8 17.4587 120.834 17.4134C120.868 17.368 120.88 17.3 120.902 17.232H120.381C120.199 17.232 120.029 17.2206 119.893 17.164C119.746 17.1186 119.621 17.0506 119.53 16.9599C119.428 16.8578 119.36 16.7444 119.315 16.5857C119.27 16.4383 119.27 16.2683 119.281 16.0642C119.292 15.8941 119.349 15.724 119.428 15.554C119.496 15.3839 119.598 15.2479 119.735 15.1118C119.871 14.9757 120.018 14.8964 120.188 14.8057C120.358 14.7376 120.551 14.6923 120.778 14.6923C120.948 14.6923 121.095 14.7263 121.231 14.7717C121.367 14.817 121.503 14.9077 121.594 14.9871C121.696 15.0891 121.764 15.2025 121.809 15.3612C121.855 15.5086 121.855 15.6787 121.843 15.8828L121.764 16.5744H122.161C122.206 16.5744 122.24 16.5857 122.263 16.6424C122.274 16.6878 122.274 16.7785 122.274 16.8805C122.263 16.9939 122.24 17.0846 122.229 17.1299C122.218 17.164 122.195 17.1753 122.184 17.1753H121.685C121.639 17.3454 121.571 17.4928 121.481 17.6288C121.401 17.7422 121.276 17.8442 121.14 17.9349C121.004 18.0143 120.857 18.071 120.687 18.105C120.517 18.139 120.335 18.1504 120.131 18.1504C120.018 18.1504 119.893 18.1503 119.78 18.139C119.667 18.1277 119.542 18.105 119.44 18.071L119.621 17.4814C119.701 17.4928 119.791 17.5154 119.893 17.5268C119.961 17.5835 120.063 17.5835 120.165 17.5835Z" fill="white"/>
<path fill-rule="evenodd" clip-rule="evenodd" d="M123.794 15.3387C123.725 15.3387 123.657 15.3387 123.589 15.35C123.521 15.3614 123.453 15.3614 123.408 15.3841C123.34 15.3954 123.295 15.4181 123.238 15.4294C123.193 15.4407 123.159 15.4634 123.136 15.4748C123.272 15.5881 123.408 15.7242 123.487 15.8603C123.589 15.9963 123.669 16.1097 123.737 16.2457C123.782 16.2117 123.85 16.1777 123.918 16.1324C123.986 16.087 124.032 16.0303 124.088 15.985C124.134 15.9396 124.19 15.8829 124.202 15.8149C124.236 15.7695 124.247 15.7015 124.27 15.6335C124.27 15.5995 124.27 15.5655 124.258 15.5315C124.247 15.4974 124.224 15.4634 124.179 15.4294C124.145 15.3954 124.1 15.3841 124.032 15.3614C123.964 15.3387 123.896 15.3387 123.794 15.3387ZM122.161 17.2321C122.059 17.2321 121.991 17.1981 121.957 17.1528C121.923 17.1074 121.911 17.0394 121.911 16.9374C121.923 16.8353 121.945 16.7559 121.991 16.6993C122.025 16.6539 122.07 16.6199 122.138 16.6199H122.728C122.83 16.6199 122.932 16.6199 123.011 16.6086C123.091 16.5972 123.159 16.5745 123.215 16.5632C123.136 16.4838 123.068 16.3931 123.011 16.3251C122.943 16.2571 122.898 16.1891 122.83 16.1437C122.784 16.0983 122.716 16.0303 122.648 15.9736C122.58 15.9283 122.501 15.8603 122.399 15.8036C122.399 15.7695 122.41 15.7242 122.433 15.6562C122.444 15.5881 122.467 15.5201 122.478 15.4521C122.49 15.3841 122.512 15.316 122.546 15.2707C122.558 15.2253 122.58 15.1686 122.592 15.1346C122.66 15.1006 122.739 15.0553 122.841 15.0212C122.943 14.9872 123.045 14.9419 123.159 14.9079C123.272 14.8739 123.397 14.8398 123.51 14.8285C123.623 14.8172 123.748 14.7945 123.862 14.7945C124.043 14.7945 124.202 14.8058 124.349 14.8398C124.496 14.8739 124.633 14.9192 124.735 15.0099C124.837 15.0779 124.916 15.1573 124.984 15.282C125.029 15.3841 125.052 15.5201 125.029 15.6562C125.018 15.7582 124.984 15.8376 124.95 15.9396C124.905 16.0417 124.837 16.121 124.769 16.2117C124.701 16.2911 124.599 16.3818 124.519 16.4612C124.417 16.5405 124.315 16.6086 124.202 16.6652C124.247 16.6766 124.304 16.6766 124.383 16.6993C124.462 16.6993 124.53 16.6993 124.587 16.6993H125.143C125.188 16.6993 125.222 16.7106 125.245 16.7673C125.256 16.8126 125.256 16.9033 125.256 17.0054C125.245 17.1414 125.222 17.2208 125.211 17.2548C125.199 17.2888 125.177 17.3002 125.165 17.3002H124.394C124.19 17.3002 124.043 17.2888 123.896 17.2321C123.76 17.1981 123.646 17.1528 123.578 17.0847C123.442 17.1528 123.272 17.1981 123.113 17.2321C122.943 17.2661 122.762 17.3002 122.592 17.3002H122.172V17.2321H122.161Z" fill="white"/>
<path fill-rule="evenodd" clip-rule="evenodd" d="M126.991 17.2321C126.809 17.2321 126.651 17.1981 126.526 17.1527C126.39 17.0847 126.311 17.0053 126.254 16.9033C126.152 17.0167 126.016 17.1074 125.834 17.1527C125.653 17.1981 125.438 17.2321 125.154 17.2321C125.075 17.2321 125.007 17.2207 124.95 17.1641C124.905 17.1187 124.905 17.0507 124.905 16.9486C124.916 16.8466 124.939 16.7672 124.984 16.7105C125.029 16.6652 125.063 16.6312 125.131 16.6312C125.335 16.6312 125.483 16.5972 125.585 16.5291C125.687 16.4611 125.732 16.3251 125.766 16.121L125.88 15.2593H126.628L126.515 16.189C126.515 16.257 126.503 16.3024 126.515 16.3591C126.515 16.4044 126.526 16.4611 126.56 16.4951C126.571 16.5291 126.628 16.5631 126.673 16.5972C126.719 16.6085 126.787 16.6312 126.877 16.6312C127.013 16.6312 127.093 16.5972 127.161 16.5291C127.229 16.4611 127.274 16.3251 127.297 16.1096L127.41 15.248H128.159L128.045 16.1777C128.045 16.2457 128.034 16.291 128.045 16.3477C128.045 16.3931 128.057 16.4498 128.079 16.4838C128.091 16.5178 128.147 16.5518 128.193 16.5858C128.238 16.5972 128.306 16.6198 128.397 16.6198C128.533 16.6198 128.635 16.5858 128.68 16.5178C128.748 16.4498 128.782 16.3137 128.816 16.1096L128.986 14.7604H129.735L129.565 16.087C129.553 16.2343 129.576 16.3704 129.678 16.4724C129.78 16.5745 129.916 16.6198 130.109 16.6198C130.154 16.6198 130.211 16.6312 130.222 16.6879C130.233 16.7332 130.233 16.8012 130.233 16.926C130.222 17.062 130.199 17.1414 130.188 17.1754C130.177 17.2094 130.154 17.2434 130.143 17.2434C130.075 17.2434 129.995 17.2434 129.927 17.2321C129.848 17.2207 129.78 17.1981 129.689 17.1867C129.61 17.1527 129.542 17.1187 129.474 17.0734C129.406 17.028 129.36 16.9713 129.326 16.9033C129.224 17.0167 129.122 17.1074 128.986 17.1754C128.85 17.2207 128.703 17.2548 128.533 17.2548C128.351 17.2548 128.193 17.2207 128.068 17.1754C127.955 17.1074 127.852 17.028 127.818 16.926C127.592 17.1074 127.331 17.2321 126.991 17.2321Z" fill="white"/>
<path fill-rule="evenodd" clip-rule="evenodd" d="M130.109 16.6085C130.222 16.6085 130.324 16.5972 130.392 16.5745C130.472 16.5632 130.528 16.5292 130.574 16.4725C130.619 16.4271 130.653 16.3704 130.676 16.3251C130.687 16.2571 130.71 16.189 130.721 16.1097L131.084 13.1618H131.832L131.447 16.2457C131.435 16.4158 131.379 16.5632 131.333 16.6879C131.288 16.8013 131.197 16.9033 131.095 16.994C130.993 17.0734 130.857 17.1414 130.698 17.1754C130.528 17.2094 130.347 17.2435 130.109 17.2435C130.029 17.2435 129.939 17.2321 129.905 17.1754C129.859 17.1301 129.859 17.0621 129.859 16.96C129.871 16.858 129.893 16.7786 129.939 16.7219C129.984 16.6426 130.041 16.6085 130.109 16.6085Z" fill="white"/>
<path fill-rule="evenodd" clip-rule="evenodd" d="M133.34 13.1505L132.818 17.2322H132.07L132.592 13.1505H133.34Z" fill="white"/>
<path fill-rule="evenodd" clip-rule="evenodd" d="M135.676 13.8081C135.687 13.6947 135.744 13.604 135.823 13.5247C135.902 13.4567 136.004 13.4113 136.129 13.4113C136.254 13.4113 136.333 13.4453 136.401 13.5247C136.469 13.5927 136.481 13.6947 136.469 13.8081C136.458 13.9215 136.401 14.0235 136.322 14.0916C136.243 14.1596 136.141 14.205 136.038 14.205C135.925 14.205 135.834 14.1709 135.766 14.0916C135.698 14.0122 135.664 13.9102 135.676 13.8081ZM134.905 18.1959C134.791 18.1959 134.689 18.1959 134.599 18.1846C134.508 18.1732 134.428 18.1505 134.383 18.1392L134.553 17.5496C134.599 17.5496 134.633 17.561 134.667 17.561C134.701 17.561 134.746 17.5723 134.78 17.5723C134.916 17.5723 135.029 17.5383 135.097 17.4589C135.165 17.3796 135.211 17.2435 135.233 17.0734L135.517 14.7718H136.265L136.027 16.6313H136.492C136.537 16.6313 136.571 16.6426 136.605 16.6993C136.617 16.7446 136.617 16.8353 136.617 16.9374C136.605 17.0508 136.583 17.1415 136.571 17.1755C136.56 17.2095 136.537 17.2435 136.526 17.2435H135.97C135.936 17.4476 135.891 17.595 135.823 17.731C135.755 17.8444 135.676 17.9465 135.574 18.0372C135.472 18.1052 135.37 18.1505 135.256 18.1846C135.143 18.1732 135.029 18.1959 134.905 18.1959Z" fill="white"/>
<path fill-rule="evenodd" clip-rule="evenodd" d="M136.549 17.2322C136.469 17.2322 136.401 17.2208 136.345 17.1641C136.299 17.1188 136.277 17.0508 136.299 16.9487C136.311 16.8467 136.333 16.7673 136.379 16.7106C136.413 16.6653 136.458 16.6313 136.526 16.6313H138.136C138.317 16.6313 138.476 16.5973 138.555 16.5179C138.635 16.4385 138.703 16.3025 138.726 16.1324L138.737 15.985C138.782 15.5995 138.589 15.4068 138.136 15.4068H136.945L137.025 14.7832L138.714 13.1959L139.168 13.6721L137.966 14.7945H138.397C138.612 14.7945 138.794 14.8285 138.952 14.8739C139.1 14.9192 139.224 15.0099 139.304 15.0893C139.383 15.1914 139.451 15.2934 139.485 15.4294C139.519 15.5655 139.519 15.7016 139.497 15.8489L139.451 16.2231C139.406 16.5973 139.304 16.8694 139.111 17.0394C138.93 17.2095 138.68 17.2775 138.329 17.2775H136.537V17.2322H136.549Z" fill="white"/>
<path fill-rule="evenodd" clip-rule="evenodd" d="M139.916 18.1957C139.803 18.1957 139.701 18.1957 139.61 18.1844C139.519 18.1731 139.44 18.1504 139.394 18.139L139.565 17.5495C139.61 17.5495 139.644 17.5608 139.678 17.5608C139.712 17.5608 139.757 17.5722 139.791 17.5722C139.927 17.5722 140.041 17.5381 140.109 17.4588C140.177 17.3794 140.222 17.2434 140.245 17.0733L140.551 14.7717H141.299L141.061 16.6311H141.526C141.571 16.6311 141.605 16.6424 141.628 16.6991C141.639 16.7445 141.639 16.8352 141.639 16.9372C141.628 17.0506 141.605 17.1413 141.594 17.1753C141.583 17.2093 141.56 17.2434 141.549 17.2434H140.993C140.959 17.4474 140.914 17.5948 140.846 17.7309C140.778 17.8443 140.698 17.9463 140.596 18.037C140.494 18.105 140.392 18.1504 140.279 18.1844C140.143 18.1731 140.029 18.1957 139.916 18.1957Z" fill="white"/>
<path fill-rule="evenodd" clip-rule="evenodd" d="M143.476 15.3387C143.374 15.3387 143.295 15.3727 143.204 15.4181C143.125 15.4634 143.057 15.5315 143 15.6335C142.932 15.7129 142.887 15.8149 142.853 15.9396C142.807 16.053 142.773 16.1777 142.75 16.3251C142.853 16.4272 142.932 16.4952 143.023 16.5405C143.102 16.5859 143.204 16.6086 143.329 16.6086C143.476 16.6086 143.612 16.5632 143.714 16.4385C143.816 16.3365 143.884 16.1891 143.896 16.019C143.93 15.8036 143.896 15.6335 143.828 15.5088C143.76 15.4067 143.646 15.3387 143.476 15.3387ZM141.549 17.2321C141.469 17.2321 141.379 17.2208 141.345 17.1641C141.299 17.1188 141.299 17.0507 141.299 16.9487C141.311 16.8467 141.333 16.7673 141.379 16.7106C141.413 16.6653 141.458 16.6312 141.526 16.6312H141.673C141.741 16.6312 141.809 16.6199 141.843 16.5972C141.889 16.5632 141.923 16.5292 141.957 16.4952C141.991 16.4498 142.002 16.3931 142.025 16.3478C142.036 16.2798 142.07 16.2117 142.093 16.1324C142.127 15.9283 142.195 15.7469 142.274 15.5768C142.354 15.4067 142.456 15.2594 142.592 15.1346C142.705 15.0213 142.864 14.9192 143.011 14.8512C143.181 14.7832 143.351 14.7491 143.533 14.7491C143.737 14.7491 143.918 14.7832 144.066 14.8512C144.213 14.9192 144.349 14.9986 144.428 15.1233C144.531 15.2367 144.599 15.3727 144.633 15.5315C144.667 15.6789 144.667 15.8489 144.644 16.0417C144.633 16.1097 144.633 16.1777 144.61 16.2457C144.599 16.3138 144.576 16.3591 144.565 16.4272C144.599 16.4952 144.667 16.5632 144.746 16.5972C144.825 16.6426 144.927 16.6653 145.029 16.6653C145.075 16.6653 145.109 16.6993 145.109 16.7446C145.12 16.79 145.12 16.8807 145.109 16.9827C145.097 17.0507 145.097 17.0961 145.097 17.1528C145.097 17.1868 145.086 17.2208 145.086 17.2548C145.086 17.2662 145.075 17.2888 145.075 17.2888C145.075 17.2888 145.075 17.3002 145.063 17.3002C144.995 17.3002 144.95 17.3002 144.859 17.2888C144.791 17.2775 144.723 17.2548 144.644 17.2435C144.576 17.2095 144.508 17.1755 144.44 17.1301C144.372 17.0848 144.326 17.0167 144.27 16.9487C144.122 17.0848 143.964 17.1868 143.805 17.2548C143.635 17.3229 143.465 17.3342 143.283 17.3342C143.113 17.3342 142.966 17.3228 142.83 17.2662C142.694 17.2208 142.558 17.1301 142.433 17.0167C142.331 17.1301 142.218 17.1981 142.116 17.2548C142.014 17.2888 141.877 17.3228 141.696 17.3228H141.549V17.2321Z" fill="white"/>
<path fill-rule="evenodd" clip-rule="evenodd" d="M145.029 16.6085C145.143 16.6085 145.233 16.5972 145.313 16.5745C145.392 16.5632 145.449 16.5292 145.494 16.4725C145.54 16.4271 145.574 16.3704 145.596 16.3251C145.608 16.2571 145.63 16.189 145.642 16.1097L146.004 13.1618H146.753L146.367 16.2457C146.356 16.4158 146.299 16.5632 146.254 16.6879C146.209 16.8013 146.118 16.9033 146.016 16.994C145.914 17.0734 145.778 17.1414 145.619 17.1754C145.449 17.2094 145.267 17.2435 145.029 17.2435C144.95 17.2435 144.859 17.2321 144.825 17.1754C144.78 17.1301 144.78 17.0621 144.78 16.96C144.791 16.858 144.814 16.7786 144.859 16.7219C144.927 16.6426 144.984 16.6085 145.029 16.6085Z" fill="white"/>
<path fill-rule="evenodd" clip-rule="evenodd" d="M148.261 13.1505L147.739 17.2322H146.991L147.512 13.1505H148.261Z" fill="white"/>
<path fill-rule="evenodd" clip-rule="evenodd" d="M91.5939 20.6335C91.4578 20.5881 91.3218 20.5541 91.1971 20.5201C91.061 20.5088 90.9136 20.4861 90.7776 20.4861C90.6982 20.4861 90.6075 20.4861 90.5395 20.4974C90.4601 20.5088 90.3921 20.5315 90.3241 20.5655C90.256 20.5995 90.2107 20.6448 90.1767 20.7015C90.1313 20.7469 90.1086 20.8149 90.0973 20.9056C90.086 20.9736 90.0973 21.0417 90.1086 21.087C90.12 21.1324 90.1767 21.189 90.222 21.2344C90.2674 21.2798 90.3354 21.3364 90.4374 21.3705C90.5168 21.4158 90.6188 21.4725 90.7549 21.5178C90.9023 21.5859 91.0383 21.6539 91.1744 21.7219C91.2878 21.79 91.4125 21.8693 91.4919 21.9714C91.5712 22.0734 91.6393 22.1754 91.6733 22.2888C91.7073 22.4022 91.7186 22.5609 91.6846 22.731C91.6733 22.9351 91.6052 23.1052 91.5032 23.2525C91.4012 23.3999 91.2878 23.5247 91.1404 23.6267C90.993 23.7287 90.8229 23.7968 90.6529 23.8421C90.4714 23.8875 90.29 23.9101 90.0973 23.9101C89.9159 23.9101 89.7345 23.8988 89.5304 23.8648C89.3263 23.8308 89.1336 23.7854 88.9408 23.7174L89.1789 23.0598C89.349 23.1278 89.5304 23.1959 89.7005 23.2299C89.8705 23.2639 90.0406 23.2752 90.1653 23.2752C90.3807 23.2752 90.5508 23.2412 90.6869 23.1618C90.8002 23.0938 90.8909 22.9804 90.9023 22.8217C90.9136 22.7537 90.9023 22.6857 90.8909 22.6176C90.8796 22.5723 90.8229 22.5042 90.7776 22.4476C90.7322 22.4022 90.6415 22.3455 90.5621 22.3002C90.4828 22.2548 90.3581 22.1981 90.2447 22.1528C90.0973 22.0847 89.9612 22.0167 89.8479 21.9487C89.7345 21.8807 89.6324 21.8013 89.5417 21.6993C89.4624 21.5972 89.3943 21.4952 89.3603 21.3818C89.3263 21.2684 89.315 21.1324 89.349 20.9736C89.383 20.7695 89.4284 20.5995 89.5304 20.4521C89.6324 20.3047 89.7458 20.18 89.8932 20.1006C90.0406 20.0212 90.1993 19.9532 90.3581 19.8965C90.5281 19.8625 90.6982 19.8285 90.8569 19.8285C91.0383 19.8285 91.2197 19.8398 91.4125 19.8625C91.5826 19.8739 91.7526 19.9305 91.8773 19.9646L91.5939 20.6335Z" fill="white"/>
<path fill-rule="evenodd" clip-rule="evenodd" d="M93.8842 22.5268C93.7481 22.5268 93.6347 22.5268 93.5213 22.5382C93.408 22.5495 93.3059 22.5722 93.2039 22.6062C93.1018 22.6402 93.0338 22.6856 92.9658 22.7536C92.9204 22.8216 92.8637 22.8897 92.8637 22.9917C92.8524 23.1051 92.8751 23.2071 92.9431 23.2751C93.0111 23.3432 93.1132 23.3772 93.2492 23.3772C93.3626 23.3772 93.4533 23.3659 93.5554 23.3318C93.6347 23.2978 93.7254 23.2525 93.7708 23.1844C93.8388 23.1164 93.8842 23.0484 93.9182 22.969C93.9522 22.8897 93.9635 22.8216 93.9862 22.7309L94.0202 22.5268H93.8842ZM94.0656 21.9713C94.0769 21.8239 94.0542 21.6992 93.9522 21.6198C93.8501 21.5405 93.7027 21.4838 93.4873 21.4838C93.3853 21.4838 93.2719 21.4951 93.1359 21.5178C92.9998 21.5405 92.8637 21.5858 92.7164 21.6312L92.6483 21.0756C92.7844 21.0302 92.9318 20.9962 93.1132 20.9622C93.2946 20.9282 93.4647 20.9169 93.612 20.9169C94.0769 20.9169 94.417 21.0189 94.6211 21.2003C94.8252 21.4044 94.8932 21.6765 94.8365 22.028L94.6891 23.2525C94.6778 23.3545 94.6778 23.4679 94.6551 23.5926C94.6438 23.706 94.6438 23.8307 94.6551 23.9101H93.9522C93.9408 23.8647 93.9408 23.808 93.9408 23.7287C93.9408 23.6606 93.9408 23.5926 93.9408 23.5473H93.9295C93.8501 23.6833 93.7141 23.7854 93.5667 23.8534C93.4193 23.9328 93.2266 23.9668 93.0451 23.9668C92.9091 23.9668 92.7957 23.9554 92.6823 23.9214C92.569 23.8874 92.4442 23.842 92.3649 23.774C92.2628 23.706 92.1948 23.6039 92.1608 23.4906C92.1154 23.3772 92.1154 23.2411 92.1268 23.0711C92.1608 22.867 92.2288 22.6856 92.3309 22.5495C92.4442 22.4135 92.5803 22.3114 92.7617 22.2434C92.9431 22.1754 93.1472 22.13 93.3853 22.096C93.6234 22.062 93.8501 22.062 94.0882 22.062V21.9713H94.0656Z" fill="white"/>
<path fill-rule="evenodd" clip-rule="evenodd" d="M97.2969 23.8875L97.3422 23.502H97.3309C97.2288 23.6494 97.1154 23.7515 96.934 23.8422C96.764 23.9215 96.5826 23.9555 96.4012 23.9555C96.2311 23.9555 96.0837 23.9215 95.9703 23.8762C95.8343 23.8308 95.7322 23.7628 95.6529 23.6608C95.5735 23.5814 95.5168 23.4567 95.4828 23.3206C95.4488 23.1846 95.4488 23.0485 95.4715 22.8784L95.7209 20.951H96.5032L96.2991 22.595C96.2878 22.7084 96.2878 22.8104 96.2878 22.9125C96.2878 22.9918 96.2991 23.0825 96.3331 23.1505C96.3671 23.2186 96.4125 23.2639 96.4805 23.2979C96.5486 23.332 96.6279 23.3433 96.73 23.3433C96.8093 23.3433 96.8774 23.332 96.9681 23.2979C97.0474 23.2639 97.1154 23.2299 97.1835 23.1619C97.2515 23.0939 97.2969 23.0145 97.3535 22.9125C97.3989 22.8104 97.4329 22.6744 97.4556 22.527L97.6597 20.9397H98.442L98.0792 23.8648H97.3082V23.8875H97.2969Z" fill="white"/>
<path fill-rule="evenodd" clip-rule="evenodd" d="M99.6551 22.4134C99.6438 22.5495 99.6438 22.6629 99.6438 22.7876C99.6551 22.901 99.6778 23.003 99.7232 23.0937C99.7685 23.1731 99.8252 23.2411 99.9046 23.2978C99.9839 23.3431 100.075 23.3658 100.188 23.3658C100.301 23.3658 100.403 23.3545 100.505 23.2978C100.608 23.2411 100.687 23.1844 100.755 23.0937C100.823 23.0143 100.891 22.9123 100.936 22.7876C100.982 22.6742 101.016 22.5495 101.038 22.4134C101.05 22.2774 101.05 22.164 101.038 22.0393C101.027 21.9259 100.993 21.8239 100.936 21.7332C100.891 21.6538 100.823 21.5858 100.732 21.5518C100.653 21.5177 100.551 21.4837 100.449 21.4837C100.335 21.4837 100.233 21.4951 100.143 21.5518C100.041 21.5971 99.9726 21.6651 99.9046 21.7558C99.8365 21.8352 99.7912 21.9372 99.7572 22.062C99.7005 22.164 99.6665 22.2774 99.6551 22.4134ZM101.333 19.8057H102.115L101.594 23.8874H100.823L100.868 23.5132H100.857C100.721 23.6606 100.574 23.7853 100.403 23.8533C100.233 23.9214 100.063 23.9554 99.9046 23.9554C99.7005 23.9554 99.5418 23.9214 99.383 23.842C99.2356 23.7626 99.1336 23.6606 99.0429 23.5245C98.9635 23.3885 98.8955 23.2184 98.8728 23.037C98.8388 22.8556 98.8388 22.6515 98.8728 22.4474C98.9068 22.232 98.9522 22.0279 99.0429 21.8352C99.1223 21.6538 99.2243 21.4837 99.349 21.3477C99.4624 21.2116 99.6211 21.1096 99.7799 21.0302C99.9499 20.9508 100.131 20.9168 100.335 20.9168C100.505 20.9168 100.653 20.9508 100.8 20.9962C100.948 21.0642 101.05 21.1663 101.152 21.3023H101.163L101.333 19.8057Z" fill="white"/>
<path fill-rule="evenodd" clip-rule="evenodd" d="M103.657 19.8172L103.578 20.4975H102.796L102.875 19.8172H103.657ZM103.499 20.9397L103.136 23.8649H102.354L102.716 20.9397H103.499Z" fill="white"/>
<path fill-rule="evenodd" clip-rule="evenodd" d="M106.469 21.5292H107.036C107.252 21.5292 107.422 21.4952 107.558 21.4158C107.671 21.3365 107.762 21.2118 107.773 21.0304C107.784 20.9283 107.773 20.8603 107.762 20.7923C107.728 20.7242 107.694 20.6902 107.648 20.6562C107.603 20.6222 107.535 20.6109 107.467 20.5882C107.399 20.5768 107.32 20.5768 107.229 20.5768H106.628L106.469 21.5292ZM106.242 23.2299H106.9C107.002 23.2299 107.104 23.2299 107.184 23.2186C107.263 23.2072 107.354 23.1846 107.422 23.1392C107.49 23.1052 107.535 23.0598 107.592 22.9691C107.626 22.9011 107.66 22.8217 107.671 22.7197C107.682 22.6177 107.671 22.5383 107.637 22.4703C107.603 22.4022 107.558 22.3569 107.501 22.3002C107.433 22.2662 107.365 22.2322 107.263 22.2208C107.161 22.2095 107.059 22.2095 106.945 22.2095H106.39L106.242 23.2299ZM105.88 19.9079H107.524C107.694 19.9079 107.864 19.9192 107.988 19.9533C108.125 19.9873 108.261 20.0553 108.34 20.1233C108.442 20.2027 108.51 20.3047 108.555 20.4294C108.601 20.5428 108.601 20.7016 108.589 20.883C108.555 21.1324 108.476 21.3365 108.34 21.4725C108.204 21.6086 108.034 21.7106 107.852 21.7787V21.79C107.954 21.824 108.034 21.858 108.125 21.9034C108.204 21.9487 108.272 22.0054 108.329 22.0848C108.374 22.1528 108.431 22.2548 108.442 22.3569C108.453 22.4589 108.476 22.595 108.453 22.731C108.442 22.8784 108.385 23.0145 108.317 23.1505C108.249 23.2866 108.17 23.4 108.045 23.502C107.932 23.6041 107.773 23.6834 107.626 23.7401C107.456 23.7855 107.274 23.8195 107.036 23.8195H105.358L105.88 19.9079Z" fill="white"/>
<path fill-rule="evenodd" clip-rule="evenodd" d="M110.88 23.8875L110.925 23.502H110.914C110.812 23.6494 110.698 23.7515 110.517 23.8422C110.347 23.9215 110.165 23.9555 109.984 23.9555C109.814 23.9555 109.667 23.9215 109.553 23.8762C109.417 23.8308 109.315 23.7628 109.236 23.6608C109.156 23.5814 109.1 23.4567 109.066 23.3206C109.032 23.1846 109.032 23.0485 109.054 22.8784L109.304 20.951H110.086L109.882 22.595C109.871 22.7084 109.871 22.8104 109.871 22.9125C109.871 22.9918 109.882 23.0825 109.916 23.1505C109.95 23.2186 109.995 23.2639 110.063 23.2979C110.131 23.332 110.211 23.3433 110.313 23.3433C110.392 23.3433 110.46 23.332 110.551 23.2979C110.642 23.2639 110.698 23.2299 110.766 23.1619C110.834 23.0939 110.88 23.0145 110.936 22.9125C110.982 22.8104 111.016 22.6744 111.038 22.527L111.242 20.9397H112.025L111.662 23.8648H110.88V23.8875Z" fill="white"/>
<path fill-rule="evenodd" clip-rule="evenodd" d="M114.462 21.6312C114.315 21.5858 114.179 21.5291 114.066 21.5178C113.93 21.5064 113.816 21.4838 113.703 21.4838C113.589 21.4838 113.499 21.4951 113.419 21.5291C113.351 21.5631 113.306 21.6312 113.283 21.7105C113.272 21.7899 113.295 21.8579 113.363 21.9146C113.431 21.96 113.567 22.028 113.759 22.0847C113.907 22.13 114.043 22.1867 114.145 22.2321C114.258 22.2774 114.349 22.3455 114.428 22.4362C114.496 22.5042 114.564 22.6062 114.576 22.6856C114.61 22.7876 114.61 22.8897 114.587 23.0257C114.576 23.1958 114.519 23.3318 114.417 23.4452C114.338 23.5586 114.236 23.6493 114.1 23.7173C113.986 23.7854 113.85 23.8307 113.703 23.8647C113.555 23.8987 113.397 23.9101 113.272 23.9101C113.091 23.9101 112.909 23.8987 112.716 23.8647C112.535 23.8307 112.365 23.7854 112.218 23.7173L112.456 23.1278C112.603 23.1958 112.773 23.2411 112.92 23.2752C113.091 23.3092 113.227 23.3205 113.34 23.3205C113.487 23.3205 113.612 23.3092 113.691 23.2752C113.771 23.2411 113.828 23.1731 113.839 23.0711C113.85 22.9917 113.828 22.9237 113.737 22.8557C113.657 22.8103 113.499 22.7423 113.283 22.6743C112.977 22.5722 112.784 22.4588 112.648 22.3001C112.535 22.164 112.478 21.9826 112.501 21.7786C112.512 21.6312 112.569 21.4951 112.648 21.3704C112.728 21.257 112.818 21.1663 112.932 21.0869C113.045 21.0189 113.181 20.9509 113.317 20.9169C113.453 20.8829 113.601 20.8715 113.737 20.8715C113.884 20.8715 114.054 20.8829 114.224 20.9055C114.394 20.9396 114.542 20.9736 114.678 21.0189L114.462 21.6312Z" fill="white"/>
<path fill-rule="evenodd" clip-rule="evenodd" d="M116.401 19.8172L116.322 20.4975H115.528L115.608 19.8172H116.401ZM116.254 20.9397L115.891 23.8649H115.109L115.472 20.9397H116.254Z" fill="white"/>
<path fill-rule="evenodd" clip-rule="evenodd" d="M117.796 20.9396L117.75 21.325H117.762C117.864 21.1777 117.977 21.0756 118.159 20.9849C118.329 20.9055 118.51 20.8715 118.691 20.8715C118.862 20.8715 119.009 20.8829 119.122 20.9396C119.236 20.9849 119.36 21.0529 119.44 21.155C119.519 21.257 119.576 21.3591 119.61 21.4951C119.644 21.6312 119.644 21.7672 119.621 21.9373L119.372 23.8647H118.589L118.794 22.2207C118.805 22.1074 118.805 22.0053 118.805 21.9033C118.805 21.8012 118.794 21.7219 118.76 21.6652C118.725 21.5972 118.68 21.5518 118.612 21.5178C118.544 21.4838 118.465 21.4724 118.363 21.4724C118.283 21.4724 118.215 21.4838 118.125 21.5064C118.057 21.5405 117.977 21.5745 117.909 21.6425C117.841 21.7105 117.773 21.7899 117.728 21.8919C117.682 21.994 117.648 22.13 117.626 22.2661L117.422 23.8534H116.639L117.002 20.9282H117.784V20.9396H117.796Z" fill="white"/>
<path fill-rule="evenodd" clip-rule="evenodd" d="M121.741 21.4157C121.56 21.4157 121.401 21.4837 121.254 21.5971C121.118 21.7105 121.016 21.8805 120.97 22.0846H122.229C122.263 21.8805 122.229 21.7105 122.127 21.5971C122.059 21.4837 121.923 21.4157 121.741 21.4157ZM120.925 22.6515C120.925 22.7876 120.936 22.8896 120.993 22.9916C121.027 23.071 121.095 23.139 121.174 23.2071C121.254 23.2524 121.345 23.3091 121.458 23.3204C121.56 23.3545 121.673 23.3545 121.809 23.3545C121.923 23.3545 122.047 23.3545 122.161 23.3431C122.274 23.3318 122.399 23.2978 122.512 23.2638L122.524 23.842C122.388 23.876 122.252 23.91 122.104 23.9214C121.957 23.9327 121.798 23.9554 121.639 23.9554C121.367 23.9554 121.152 23.9214 120.959 23.842C120.755 23.774 120.608 23.6606 120.494 23.5245C120.381 23.3885 120.29 23.2411 120.245 23.037C120.199 22.8556 120.177 22.6515 120.211 22.4134C120.245 22.198 120.29 21.9939 120.392 21.8012C120.472 21.6198 120.596 21.4497 120.744 21.3136C120.88 21.1776 121.05 21.0755 121.242 20.9962C121.424 20.9282 121.639 20.8828 121.866 20.8828C122.081 20.8828 122.263 20.9168 122.422 20.9848C122.569 21.0529 122.705 21.1549 122.784 21.2683C122.886 21.3817 122.932 21.5404 122.966 21.7218C123 21.9032 123 22.096 122.966 22.3114L122.932 22.6288H120.925V22.6515Z" fill="white"/>
<path fill-rule="evenodd" clip-rule="evenodd" d="M125.426 21.6312C125.279 21.5858 125.143 21.5291 125.029 21.5178C124.893 21.5064 124.78 21.4838 124.667 21.4838C124.553 21.4838 124.462 21.4951 124.383 21.5291C124.315 21.5631 124.27 21.6312 124.247 21.7105C124.236 21.7899 124.258 21.8579 124.326 21.9146C124.394 21.96 124.53 22.028 124.723 22.0847C124.871 22.13 125.007 22.1867 125.109 22.2321C125.222 22.2774 125.313 22.3455 125.392 22.4362C125.46 22.5042 125.528 22.6062 125.54 22.6856C125.574 22.7876 125.574 22.8897 125.551 23.0257C125.54 23.1958 125.483 23.3318 125.381 23.4452C125.301 23.5586 125.199 23.6493 125.063 23.7173C124.95 23.7854 124.814 23.8307 124.667 23.8647C124.519 23.8987 124.36 23.9101 124.236 23.9101C124.054 23.9101 123.873 23.8987 123.68 23.8647C123.499 23.8307 123.329 23.7854 123.181 23.7173L123.419 23.1278C123.567 23.1958 123.737 23.2411 123.884 23.2752C124.054 23.3092 124.19 23.3205 124.304 23.3205C124.451 23.3205 124.576 23.3092 124.655 23.2752C124.735 23.2411 124.791 23.1731 124.803 23.0711C124.814 22.9917 124.791 22.9237 124.701 22.8557C124.621 22.8103 124.462 22.7423 124.247 22.6743C123.941 22.5722 123.748 22.4588 123.612 22.3001C123.499 22.164 123.442 21.9826 123.465 21.7786C123.476 21.6312 123.533 21.4951 123.612 21.3704C123.691 21.257 123.782 21.1663 123.896 21.0869C124.009 21.0189 124.145 20.9509 124.281 20.9169C124.417 20.8829 124.564 20.8715 124.701 20.8715C124.848 20.8715 125.018 20.8829 125.188 20.9055C125.358 20.9396 125.506 20.9736 125.642 21.0189L125.426 21.6312Z" fill="white"/>
<path fill-rule="evenodd" clip-rule="evenodd" d="M128.045 21.6312C127.898 21.5858 127.762 21.5291 127.648 21.5178C127.512 21.5064 127.399 21.4838 127.286 21.4838C127.172 21.4838 127.081 21.4951 127.002 21.5291C126.934 21.5631 126.889 21.6312 126.866 21.7105C126.855 21.7899 126.877 21.8579 126.945 21.9146C127.013 21.96 127.15 22.028 127.342 22.0847C127.49 22.13 127.626 22.1867 127.728 22.2321C127.841 22.2774 127.932 22.3455 128.011 22.4362C128.079 22.5042 128.147 22.6062 128.159 22.6856C128.193 22.7876 128.193 22.8897 128.17 23.0257C128.159 23.1958 128.102 23.3318 128 23.4452C127.921 23.5586 127.818 23.6493 127.682 23.7173C127.569 23.7854 127.433 23.8307 127.286 23.8647C127.138 23.8987 126.979 23.9101 126.855 23.9101C126.673 23.9101 126.492 23.8987 126.299 23.8647C126.118 23.8307 125.948 23.7854 125.8 23.7173L126.038 23.1278C126.186 23.1958 126.356 23.2411 126.503 23.2752C126.673 23.3092 126.809 23.3205 126.923 23.3205C127.07 23.3205 127.195 23.3092 127.274 23.2752C127.354 23.2411 127.41 23.1731 127.422 23.0711C127.433 22.9917 127.41 22.9237 127.32 22.8557C127.24 22.8103 127.081 22.7423 126.866 22.6743C126.56 22.5722 126.367 22.4588 126.231 22.3001C126.118 22.164 126.061 21.9826 126.084 21.7786C126.095 21.6312 126.152 21.4951 126.231 21.3704C126.311 21.257 126.401 21.1663 126.515 21.0869C126.628 21.0189 126.764 20.9509 126.9 20.9169C127.036 20.8829 127.184 20.8715 127.32 20.8715C127.467 20.8715 127.637 20.8829 127.807 20.9055C127.977 20.9396 128.125 20.9736 128.261 21.0189L128.045 21.6312Z" fill="white"/>
<path fill-rule="evenodd" clip-rule="evenodd" d="M133.181 20.6336C133.079 20.5996 132.966 20.5656 132.841 20.5316C132.716 20.4976 132.603 20.4976 132.49 20.4976C132.286 20.4976 132.093 20.5316 131.923 20.6109C131.753 20.679 131.605 20.781 131.492 20.9171C131.379 21.0304 131.277 21.1892 131.208 21.3706C131.14 21.5406 131.095 21.722 131.061 21.9148C131.05 22.0962 131.05 22.2663 131.072 22.4363C131.106 22.6064 131.152 22.7538 131.254 22.8785C131.333 23.0146 131.458 23.1166 131.605 23.1846C131.753 23.2527 131.923 23.298 132.138 23.298C132.286 23.298 132.422 23.2867 132.535 23.264C132.648 23.23 132.773 23.196 132.887 23.1506L132.932 23.7742C132.784 23.8422 132.626 23.8762 132.467 23.9103C132.297 23.9443 132.127 23.9443 131.945 23.9443C131.639 23.9443 131.39 23.8989 131.163 23.7969C130.925 23.6948 130.744 23.5588 130.596 23.3774C130.449 23.196 130.347 22.9919 130.279 22.7311C130.211 22.4817 130.211 22.2096 130.245 21.9035C130.279 21.5973 130.358 21.3252 130.483 21.0758C130.596 20.8264 130.766 20.5996 130.948 20.4182C131.152 20.2368 131.367 20.1007 131.628 19.9987C131.9 19.8966 132.184 19.8513 132.478 19.8513C132.648 19.8513 132.818 19.8626 132.966 19.8853C133.113 19.9193 133.249 19.9533 133.385 19.9987L133.181 20.6336Z" fill="white"/>
<path fill-rule="evenodd" clip-rule="evenodd" d="M135.041 21.4157C134.859 21.4157 134.701 21.4837 134.553 21.5971C134.417 21.7105 134.315 21.8805 134.27 22.0846H135.528C135.562 21.8805 135.528 21.7105 135.426 21.5971C135.358 21.4837 135.222 21.4157 135.041 21.4157ZM134.202 22.6515C134.202 22.7876 134.213 22.8896 134.27 22.9916C134.304 23.071 134.372 23.139 134.451 23.2071C134.531 23.2524 134.621 23.3091 134.735 23.3204C134.837 23.3545 134.95 23.3545 135.086 23.3545C135.199 23.3545 135.324 23.3545 135.438 23.3431C135.551 23.3318 135.676 23.2978 135.789 23.2638L135.8 23.842C135.664 23.876 135.528 23.91 135.381 23.9214C135.233 23.9327 135.075 23.9554 134.916 23.9554C134.644 23.9554 134.428 23.9214 134.236 23.842C134.032 23.774 133.884 23.6606 133.771 23.5245C133.657 23.3885 133.567 23.2411 133.521 23.037C133.476 22.8556 133.453 22.6515 133.487 22.4134C133.521 22.198 133.567 21.9939 133.669 21.8012C133.748 21.6198 133.873 21.4497 134.02 21.3136C134.156 21.1776 134.326 21.0755 134.519 20.9962C134.701 20.9282 134.916 20.8828 135.143 20.8828C135.358 20.8828 135.54 20.9168 135.698 20.9848C135.846 21.0529 135.982 21.1549 136.061 21.2683C136.163 21.3817 136.209 21.5404 136.243 21.7218C136.277 21.9032 136.277 22.096 136.243 22.3114L136.209 22.6288H134.202V22.6515Z" fill="white"/>
<path fill-rule="evenodd" clip-rule="evenodd" d="M137.784 20.9396L137.739 21.325H137.75C137.853 21.1777 137.966 21.0756 138.147 20.9849C138.317 20.9055 138.499 20.8715 138.68 20.8715C138.85 20.8715 138.998 20.8829 139.111 20.9396C139.224 20.9849 139.349 21.0529 139.428 21.155C139.508 21.257 139.565 21.3591 139.599 21.4951C139.633 21.6312 139.633 21.7672 139.61 21.9373L139.36 23.8647H138.578L138.782 22.2207C138.794 22.1074 138.794 22.0053 138.794 21.9033C138.794 21.8012 138.782 21.7219 138.748 21.6652C138.714 21.5972 138.669 21.5518 138.601 21.5178C138.533 21.4838 138.453 21.4724 138.351 21.4724C138.272 21.4724 138.204 21.4838 138.113 21.5064C138.045 21.5405 137.966 21.5745 137.898 21.6425C137.83 21.7105 137.762 21.7899 137.716 21.8919C137.671 21.994 137.637 22.13 137.614 22.2661L137.41 23.8534H136.628L136.991 20.9282H137.773V20.9396H137.784Z" fill="white"/>
<path fill-rule="evenodd" clip-rule="evenodd" d="M140.165 20.9395H140.619L140.721 20.1571H141.503L141.401 20.9395H142.002L141.923 21.529H141.322L141.152 22.8329C141.14 22.9349 141.14 23.0143 141.14 23.071C141.14 23.139 141.152 23.173 141.174 23.207C141.186 23.2411 141.22 23.2524 141.254 23.2751C141.288 23.2864 141.356 23.2864 141.424 23.2864C141.469 23.2864 141.503 23.2864 141.56 23.2864C141.594 23.2864 141.639 23.2751 141.696 23.2751L141.628 23.8646C141.56 23.8646 141.481 23.876 141.379 23.876C141.299 23.876 141.197 23.876 141.106 23.876C140.925 23.876 140.766 23.8646 140.676 23.8306C140.574 23.7966 140.494 23.7513 140.438 23.6606C140.392 23.5925 140.358 23.5132 140.335 23.3884C140.324 23.2864 140.335 23.1504 140.347 23.0143L140.551 21.495H140.097L140.165 20.9395Z" fill="white"/>
<path fill-rule="evenodd" clip-rule="evenodd" d="M143.703 21.4157C143.521 21.4157 143.363 21.4837 143.215 21.5971C143.079 21.7105 142.977 21.8805 142.932 22.0846H144.19C144.224 21.8805 144.19 21.7105 144.088 21.5971C144.009 21.4837 143.873 21.4157 143.703 21.4157ZM142.875 22.6515C142.875 22.7876 142.887 22.8896 142.943 22.9916C142.989 23.071 143.045 23.139 143.125 23.2071C143.204 23.2524 143.295 23.3091 143.408 23.3204C143.51 23.3545 143.624 23.3545 143.76 23.3545C143.873 23.3545 143.998 23.3545 144.111 23.3431C144.224 23.3318 144.349 23.2978 144.463 23.2638L144.474 23.842C144.338 23.876 144.202 23.91 144.054 23.9214C143.907 23.9327 143.748 23.9554 143.589 23.9554C143.317 23.9554 143.102 23.9214 142.909 23.842C142.705 23.774 142.558 23.6606 142.444 23.5245C142.331 23.3885 142.24 23.2411 142.195 23.037C142.15 22.8556 142.127 22.6515 142.161 22.4134C142.195 22.198 142.24 21.9939 142.342 21.8012C142.422 21.6198 142.546 21.4497 142.694 21.3136C142.841 21.1776 143 21.0755 143.193 20.9962C143.374 20.9282 143.589 20.8828 143.816 20.8828C144.032 20.8828 144.213 20.9168 144.372 20.9848C144.519 21.0529 144.655 21.1549 144.735 21.2683C144.837 21.3817 144.882 21.5404 144.916 21.7218C144.95 21.9032 144.95 22.096 144.916 22.3114L144.882 22.6288H142.875V22.6515Z" fill="white"/>
<path fill-rule="evenodd" clip-rule="evenodd" d="M147.32 21.4951C147.286 21.4951 147.252 21.4837 147.218 21.4837C147.184 21.4837 147.15 21.4837 147.104 21.4837C147.002 21.4837 146.923 21.4951 146.832 21.5291C146.753 21.5631 146.662 21.6084 146.583 21.6991C146.503 21.7785 146.447 21.8805 146.379 22.0053C146.333 22.1413 146.299 22.2887 146.265 22.4588L146.084 23.876H145.313L145.676 20.9508H146.447L146.401 21.3363H146.413C146.594 21.0302 146.866 20.8828 147.229 20.8828C147.263 20.8828 147.297 20.8828 147.342 20.8828C147.376 20.8828 147.41 20.8828 147.444 20.8828L147.32 21.4951Z" fill="white"/>
<path fill-rule="evenodd" clip-rule="evenodd" d="M167.161 16.2003C167.059 16.3817 166.844 16.4724 166.639 16.4044C166.254 16.291 165.891 16.1663 165.517 16.0642C165.154 15.9509 164.769 15.8488 164.395 15.7581C163.646 15.5767 162.887 15.384 162.138 15.2479C161.787 15.1799 161.537 14.8398 161.605 14.4656C161.617 14.3976 161.639 14.3295 161.673 14.2615C162.036 13.5812 162.444 12.969 162.864 12.3794C163.283 11.7899 163.737 11.2116 164.224 10.6674C164.395 10.486 164.678 10.4633 164.859 10.6334C165.007 10.7694 165.041 11.0075 164.961 11.1776C164.621 11.8239 164.27 12.4361 163.907 13.0597L163.374 13.9781C163.363 14.0121 163.329 14.0574 163.306 14.0915C163.805 14.2048 164.292 14.3636 164.78 14.5336C165.166 14.6697 165.551 14.8171 165.914 14.9871C166.277 15.1572 166.662 15.3386 167.014 15.5427C167.218 15.7014 167.297 15.9735 167.161 16.2003Z" fill="white"/>
<path fill-rule="evenodd" clip-rule="evenodd" d="M158.363 15.1799C158.295 15.2139 158.227 15.2252 158.159 15.2479C157.41 15.384 156.651 15.554 155.902 15.7581C155.54 15.8602 155.154 15.9622 154.78 16.0642C154.417 16.1663 154.043 16.2797 153.658 16.4044C153.419 16.4724 153.17 16.3363 153.102 16.0982C153.057 15.8942 153.136 15.6901 153.306 15.5767C153.658 15.3726 154.02 15.1912 154.395 15.0211C154.757 14.8511 155.143 14.7037 155.528 14.5676C156.016 14.3976 156.503 14.2502 157.002 14.1255C156.991 14.0914 156.957 14.0461 156.934 14.0121L156.401 13.0937C156.039 12.4815 155.687 11.8579 155.347 11.2116C155.234 10.9962 155.313 10.7241 155.528 10.5994C155.71 10.4973 155.925 10.554 156.061 10.7014C156.549 11.2456 157.002 11.8239 157.422 12.4134C157.841 13.003 158.238 13.6152 158.612 14.2955C158.805 14.5903 158.703 14.9985 158.363 15.1799Z" fill="white"/>
<path fill-rule="evenodd" clip-rule="evenodd" d="M163.011 23.6267C162.807 23.6947 162.592 23.6267 162.478 23.4453C162.229 23.0371 161.991 22.6176 161.741 22.1868L161.039 20.9283L160.336 19.6698C160.29 19.5678 160.222 19.4884 160.165 19.3863C160.12 19.4884 160.052 19.5678 159.995 19.6698L159.292 20.9283L158.578 22.1868C158.329 22.595 158.091 23.0145 157.841 23.4226C157.705 23.6267 157.444 23.6947 157.218 23.5587C157.036 23.4453 156.968 23.2186 157.036 23.0145C157.206 22.561 157.388 22.1188 157.592 21.6653C157.773 21.2231 157.989 20.7809 158.193 20.3387C158.408 19.8966 158.624 19.4544 158.862 19.0349C159.1 18.6154 159.326 18.1732 159.61 17.7424V17.731C159.814 17.4249 160.211 17.3455 160.517 17.5496C160.585 17.595 160.653 17.663 160.698 17.731C160.982 18.1732 161.22 18.5927 161.447 19.0349C161.662 19.4771 161.9 19.8966 162.104 20.3387C162.32 20.7809 162.524 21.2231 162.705 21.6653C162.887 22.1188 163.091 22.561 163.272 23.0145C163.363 23.2979 163.249 23.5474 163.011 23.6267Z" fill="white"/>
<path fill-rule="evenodd" clip-rule="evenodd" d="M159.701 8.69467C159.599 8.35453 159.553 8.01439 159.519 7.66292C159.485 7.32278 159.485 6.98264 159.485 6.63117C159.497 5.95089 159.553 5.25929 159.723 4.57901C159.791 4.32958 160.029 4.17085 160.279 4.23887C160.449 4.28423 160.585 4.42028 160.619 4.57901C160.789 5.25929 160.823 5.95089 160.834 6.63117C160.834 6.9713 160.823 7.31144 160.8 7.66292C160.766 8.00305 160.721 8.34319 160.619 8.69467C160.551 8.9441 160.279 9.08016 160.029 9.00079C159.859 8.96678 159.757 8.84206 159.701 8.69467Z" fill="white"/>
<path fill-rule="evenodd" clip-rule="evenodd" d="M168.771 19.2503C168.635 19.4544 168.385 19.5564 168.17 19.4657C167.683 19.2957 167.218 19.1142 166.73 18.9555C166.243 18.7854 165.755 18.6494 165.279 18.502C164.814 18.3659 164.338 18.2526 163.873 18.1505C164.19 18.7288 164.508 19.307 164.848 19.8966C165.154 20.4181 165.438 20.9623 165.721 21.5179C165.993 22.0734 166.277 22.6177 166.492 23.1959C166.605 23.468 166.481 23.7514 166.22 23.8762C165.982 23.9782 165.732 23.8762 165.596 23.6948L163.635 20.6562C162.977 19.6358 162.331 18.57 161.798 17.4589C161.617 17.0848 161.764 16.6312 162.138 16.4272C162.286 16.3591 162.456 16.3251 162.603 16.3591C163.669 16.5405 164.712 16.8127 165.732 17.1868C166.231 17.3682 166.741 17.5723 167.218 17.8104C167.705 18.0485 168.17 18.2866 168.635 18.57C168.839 18.6721 168.918 18.9895 168.771 19.2503Z" fill="white"/>
<path fill-rule="evenodd" clip-rule="evenodd" d="M158.533 17.4134C157.977 18.5472 157.342 19.613 156.696 20.6334L154.757 23.6833C154.61 23.9214 154.292 23.9894 154.054 23.8307C153.839 23.6946 153.771 23.4225 153.85 23.2071C154.088 22.6289 154.349 22.0733 154.621 21.5178C154.905 20.9735 155.188 20.4293 155.494 19.8964C155.812 19.3069 156.152 18.7286 156.447 18.1504C155.982 18.2638 155.506 18.3885 155.041 18.5246C154.553 18.6606 154.066 18.808 153.59 18.9781C153.102 19.1255 152.614 19.3182 152.15 19.4883C151.877 19.5903 151.594 19.4429 151.492 19.1822C151.413 18.9441 151.503 18.6946 151.707 18.5699C152.161 18.2865 152.648 18.0484 153.125 17.8103C153.612 17.5949 154.111 17.3681 154.61 17.1867C155.619 16.8125 156.662 16.5404 157.739 16.3363C158.136 16.2683 158.544 16.5404 158.612 16.9599C158.612 17.1073 158.601 17.2774 158.533 17.4134Z" fill="white"/>
<path fill-rule="evenodd" clip-rule="evenodd" d="M167.048 20.214C167.388 20.384 167.671 20.5881 167.955 20.8035C168.238 21.019 168.488 21.2571 168.737 21.5292C169.236 22.0394 169.689 22.5949 170.063 23.2412C170.177 23.4566 170.097 23.7514 169.882 23.8648C169.735 23.9441 169.542 23.9328 169.395 23.8308C168.828 23.4226 168.306 22.9464 167.819 22.4815C167.569 22.2435 167.331 21.994 167.104 21.7332C166.866 21.4611 166.651 21.189 166.469 20.8829C166.333 20.6675 166.401 20.3727 166.617 20.2366C166.753 20.1459 166.912 20.1459 167.048 20.214Z" fill="white"/>
<path fill-rule="evenodd" clip-rule="evenodd" d="M153.85 20.8489C153.669 21.1551 153.453 21.4385 153.215 21.6993C152.977 21.9487 152.75 22.2095 152.501 22.4589C152.002 22.9351 151.492 23.4113 150.925 23.8081C150.721 23.9555 150.438 23.9102 150.29 23.6948C150.188 23.5474 150.188 23.3546 150.256 23.2072C150.608 22.5496 151.072 22.0054 151.56 21.4839C151.809 21.2344 152.082 20.9963 152.342 20.7582C152.626 20.5428 152.909 20.3387 153.249 20.1687C153.487 20.0553 153.748 20.1573 153.873 20.3727C153.952 20.5542 153.93 20.7242 153.85 20.8489Z" fill="white"/>
<path fill-rule="evenodd" clip-rule="evenodd" d="M163.805 8.21854C163.374 9.14825 162.887 10.0666 162.388 10.9396C161.889 11.8353 161.367 12.7197 160.812 13.5814C160.664 13.7968 160.426 13.9328 160.177 13.9328C159.905 13.9328 159.678 13.7855 159.542 13.5814C159.009 12.697 158.487 11.824 157.989 10.917C157.739 10.4748 157.49 10.0213 157.252 9.56775C157.014 9.11424 156.764 8.64938 156.549 8.19587C156.435 7.94644 156.537 7.64031 156.787 7.50426C157.002 7.39088 157.274 7.47024 157.41 7.65165C157.728 8.05981 158.011 8.47932 158.317 8.91016C158.624 9.32966 158.907 9.7605 159.19 10.18C159.531 10.6902 159.859 11.2117 160.2 11.7333C160.54 11.2117 160.868 10.6789 161.209 10.18C161.775 9.31832 162.365 8.49065 163 7.67433C163.17 7.45891 163.487 7.40221 163.714 7.59496C163.839 7.74235 163.884 8.01446 163.805 8.21854Z" fill="white"/>
<defs>
<linearGradient id="paint0_linear_0_387" x1="37.8409" y1="14.2289" x2="56.5443" y2="14.2289" gradientUnits="userSpaceOnUse">
<stop stop-color="#1A459D"/>
<stop offset="1" stop-color="#08AA90"/>
</linearGradient>
<clipPath id="clip0_0_387">
<rect width="42" height="20" fill="white" transform="translate(15.1282 4.19097) scale(1.00381)"/>
</clipPath>
</defs>
</svg>
