<svg width="22" height="22" viewBox="0 0 22 22" fill="none" xmlns="http://www.w3.org/2000/svg">
<g clip-path="url(#clip0_0_1347)">
<path fill-rule="evenodd" clip-rule="evenodd" d="M16.9528 3.48424C18.8732 4.60349 20.2244 6.8759 20.1648 9.5269C20.0906 12.8361 17.5156 15.7547 13.1257 18.3617C12.4749 18.7486 11.7892 19.25 11 19.25C10.2254 19.25 9.5104 18.7394 8.87332 18.3608C4.48524 15.7547 1.90941 12.8351 1.83516 9.5269C1.77557 6.8759 3.12674 4.6044 5.04716 3.48424C6.84382 2.43832 9.10065 2.4319 11 3.97649C12.8993 2.4319 15.1561 2.4374 16.9528 3.48424ZM16.0297 5.06915C14.7519 4.32482 13.1551 4.3514 11.7727 5.75024C11.6715 5.85217 11.5511 5.93308 11.4185 5.98829C11.2859 6.04349 11.1436 6.07192 11 6.07192C10.8563 6.07192 10.7141 6.04349 10.5815 5.98829C10.4488 5.93308 10.3285 5.85217 10.2272 5.75024C8.8449 4.3514 7.24807 4.32482 5.97024 5.06915C4.64657 5.84099 3.62357 7.47815 3.66849 9.48748C3.71982 11.7892 5.53849 14.2486 9.81015 16.786C10.1842 17.0087 10.5747 17.2938 11 17.4121C11.4253 17.2938 11.8158 17.0087 12.1898 16.786C16.4615 14.2486 18.2801 11.7901 18.3315 9.48657C18.3773 7.47907 17.3534 5.84099 16.0297 5.06915Z" fill="#8795A0"/>
</g>
<defs>
<clipPath id="clip0_0_1347">
<rect width="21.3333" height="21.3333" fill="white" transform="scale(1.03125)"/>
</clipPath>
</defs>
</svg>
