<svg width="74" height="85" viewBox="0 0 74 85" fill="none" xmlns="http://www.w3.org/2000/svg">
<g clip-path="url(#clip0_0_378)">
<path d="M23.5655 58.6934C31.7758 58.6934 38.4315 52.0377 38.4315 43.8274C38.4315 35.617 31.7758 28.9613 23.5655 28.9613C15.3551 28.9613 8.69937 35.617 8.69937 43.8274C8.69937 52.0377 15.3551 58.6934 23.5655 58.6934Z" stroke="#B44734" stroke-width="5.46723"/>
<path d="M0.00403268 47.3514C0.00134423 47.5345 0 47.718 0 47.9019C0 68.2756 16.5162 84.7918 36.8899 84.7918C57.2635 84.7918 73.7797 68.2756 73.7797 47.9019C73.7797 47.718 73.7785 47.5345 73.7757 47.3514H0.00403268Z" fill="#B44734"/>
<path d="M54.9495 37.771C58.5985 37.771 61.5566 34.8129 61.5566 31.1639C61.5566 27.5149 58.5985 24.5568 54.9495 24.5568C51.3005 24.5568 48.3424 27.5149 48.3424 31.1639C48.3424 34.8129 51.3005 37.771 54.9495 37.771Z" stroke="#B44734" stroke-width="3.28034"/>
<path d="M42.8363 15.7472C46.4854 15.7472 49.4435 12.7891 49.4435 9.14009C49.4435 5.49107 46.4854 2.53295 42.8363 2.53295C39.1873 2.53295 36.2292 5.49107 36.2292 9.14009C36.2292 12.7891 39.1873 15.7472 42.8363 15.7472Z" stroke="#B44734" stroke-width="3.28034"/>
</g>
<defs>
<clipPath id="clip0_0_378">
<rect width="73.4795" height="84.1953" fill="white" transform="scale(1.00708)"/>
</clipPath>
</defs>
</svg>
