<svg width="24" height="24" viewBox="0 0 24 24" fill="none" xmlns="http://www.w3.org/2000/svg">
<g clip-path="url(#clip0_0_1442)">
<path d="M18.06 3C18.5417 3.00004 19.0072 3.17395 19.371 3.48975C19.7347 3.80556 19.9723 4.24206 20.04 4.719L20.057 4.875L20.932 18.875C20.965 19.4003 20.7897 19.9175 20.4439 20.3143C20.0981 20.7112 19.6099 20.9558 19.085 20.995L18.935 21H5.06598C4.53968 21 4.03457 20.7926 3.66018 20.4227C3.28579 20.0528 3.07229 19.5503 3.06598 19.024L3.06898 18.875L3.94398 4.875C3.97407 4.39407 4.17679 3.94017 4.51485 3.59679C4.85291 3.2534 5.30358 3.04361 5.78398 3.006L5.93998 3H18.06ZM18.06 5H5.93998L5.06498 19H18.935L18.06 5ZM15 7C15.2652 7 15.5195 7.10536 15.7071 7.29289C15.8946 7.48043 16 7.73478 16 8C16 9.06087 15.5786 10.0783 14.8284 10.8284C14.0783 11.5786 13.0608 12 12 12C10.9391 12 9.9217 11.5786 9.17155 10.8284C8.42141 10.0783 7.99998 9.06087 7.99998 8C7.99998 7.73478 8.10534 7.48043 8.29287 7.29289C8.48041 7.10536 8.73476 7 8.99998 7C9.2652 7 9.51955 7.10536 9.70709 7.29289C9.89462 7.48043 9.99998 7.73478 9.99998 8C9.99766 8.51898 10.1972 9.01855 10.5564 9.39315C10.9156 9.76776 11.4063 9.98807 11.9249 10.0075C12.4435 10.027 12.9494 9.84412 13.3357 9.49751C13.722 9.15089 13.9584 8.6677 13.995 8.15L14 8C14 7.73478 14.1053 7.48043 14.2929 7.29289C14.4804 7.10536 14.7348 7 15 7Z" fill="white"/>
</g>
<defs>
<clipPath id="clip0_0_1442">
<rect width="24" height="24" fill="white"/>
</clipPath>
</defs>
</svg>
