<svg width="28" height="28" viewBox="0 0 28 28" fill="none" xmlns="http://www.w3.org/2000/svg">
<g clip-path="url(#clip0_0_1408)">
<path d="M10.5 23.3333C10.8094 23.3333 11.1062 23.4563 11.325 23.675C11.5438 23.8938 11.6667 24.1906 11.6667 24.5C11.6667 24.8094 11.5438 25.1062 11.325 25.325C11.1062 25.5438 10.8094 25.6667 10.5 25.6667C10.1906 25.6667 9.89384 25.5438 9.67504 25.325C9.45625 25.1062 9.33333 24.8094 9.33333 24.5C9.33333 24.1906 9.45625 23.8938 9.67504 23.675C9.89384 23.4563 10.1906 23.3333 10.5 23.3333ZM18.6667 23.3333C18.9761 23.3333 19.2728 23.4563 19.4916 23.675C19.7104 23.8938 19.8333 24.1906 19.8333 24.5C19.8333 24.8094 19.7104 25.1062 19.4916 25.325C19.2728 25.5438 18.9761 25.6667 18.6667 25.6667C18.3572 25.6667 18.0605 25.5438 17.8417 25.325C17.6229 25.1062 17.5 24.8094 17.5 24.5C17.5 24.1906 17.6229 23.8938 17.8417 23.675C18.0605 23.4563 18.3572 23.3333 18.6667 23.3333ZM4.0775 3.0695L4.2 3.15117L6.19267 4.6445C6.53177 4.89894 6.79515 5.24097 6.9545 5.63383L7.0245 5.83333H22.0115C22.3278 5.83325 22.6408 5.89748 22.9315 6.02211C23.2222 6.14674 23.4845 6.32917 23.7025 6.55832C23.9206 6.78746 24.0897 7.05854 24.1997 7.35508C24.3097 7.65163 24.3583 7.96744 24.3425 8.28333L24.3273 8.456L23.7942 12.7202C23.6342 14.0034 23.0523 15.1971 22.14 16.1136C21.2277 17.0302 20.0367 17.6176 18.7542 17.7835L18.4905 17.8103L9.95867 18.522L10.262 19.8333H20.4167C20.714 19.8337 21 19.9475 21.2163 20.1517C21.4325 20.3558 21.5626 20.6348 21.58 20.9316C21.5975 21.2285 21.5009 21.5208 21.31 21.7488C21.1192 21.9768 20.8484 22.1234 20.5532 22.1585L20.4167 22.1667H10.262C9.76687 22.1668 9.28455 22.0093 8.8848 21.7172C8.48506 21.425 8.18861 21.0133 8.03833 20.5415L7.98817 20.3583L4.7915 6.51L2.8 5.01667C2.57238 4.84606 2.41493 4.59818 2.35727 4.31962C2.2996 4.04107 2.34569 3.75105 2.48687 3.50409C2.62804 3.25714 2.85458 3.07028 3.12387 2.97864C3.39317 2.887 3.68667 2.89691 3.94917 3.0065L4.0775 3.0695ZM22.0115 8.16667H7.56817L9.429 16.2237L18.2957 15.4852C19.0959 15.4186 19.8489 15.0788 20.4284 14.5229C21.0079 13.967 21.3786 13.2288 21.4783 12.432L22.0115 8.16667Z" fill="white"/>
</g>
<defs>
<clipPath id="clip0_0_1408">
<rect width="28" height="28" fill="white"/>
</clipPath>
</defs>
</svg>
