<svg width="276" height="24" viewBox="0 0 276 24" fill="none" xmlns="http://www.w3.org/2000/svg">
<path d="M19.05 4.91005C18.1331 3.98416 17.041 3.25002 15.8375 2.75042C14.634 2.25081 13.3431 1.99574 12.04 2.00005C6.58 2.00005 2.13 6.45005 2.13 11.9101C2.13 13.6601 2.59 15.3601 3.45 16.8601L2.05 22.0001L7.3 20.6201C8.75 21.4101 10.38 21.8301 12.04 21.8301C17.5 21.8301 21.95 17.3801 21.95 11.9201C21.95 9.27005 20.92 6.78005 19.05 4.91005ZM12.04 20.1501C10.56 20.1501 9.11 19.7501 7.84 19.0001L7.54 18.8201L4.42 19.6401L5.25 16.6001L5.05 16.2901C4.22755 14.9771 3.79093 13.4593 3.79 11.9101C3.79 7.37005 7.49 3.67005 12.03 3.67005C14.23 3.67005 16.3 4.53005 17.85 6.09005C18.6176 6.85392 19.2259 7.7626 19.6396 8.76338C20.0533 9.76417 20.2642 10.8371 20.26 11.9201C20.28 16.4601 16.58 20.1501 12.04 20.1501ZM16.56 13.9901C16.31 13.8701 15.09 13.2701 14.87 13.1801C14.64 13.1001 14.48 13.0601 14.31 13.3001C14.14 13.5501 13.67 14.1101 13.53 14.2701C13.39 14.4401 13.24 14.4601 12.99 14.3301C12.74 14.2101 11.94 13.9401 11 13.1001C10.26 12.4401 9.77 11.6301 9.62 11.3801C9.48 11.1301 9.6 11.0001 9.73 10.8701C9.84 10.7601 9.98 10.5801 10.1 10.4401C10.22 10.3001 10.27 10.1901 10.35 10.0301C10.43 9.86005 10.39 9.72005 10.33 9.60005C10.27 9.48005 9.77 8.26005 9.57 7.76005C9.37 7.28005 9.16 7.34005 9.01 7.33005H8.53C8.36 7.33005 8.1 7.39005 7.87 7.64005C7.65 7.89005 7.01 8.49005 7.01 9.71005C7.01 10.9301 7.9 12.1101 8.02 12.2701C8.14 12.4401 9.77 14.9401 12.25 16.0101C12.84 16.2701 13.3 16.4201 13.66 16.5301C14.25 16.7201 14.79 16.6901 15.22 16.6301C15.7 16.5601 16.69 16.0301 16.89 15.4501C17.1 14.8701 17.1 14.3801 17.03 14.2701C16.96 14.1601 16.81 14.1101 16.56 13.9901Z" fill="white"/>
<path d="M55 3C55.5304 3 56.0391 3.21071 56.4142 3.58579C56.7893 3.96086 57 4.46957 57 5V19C57 19.5304 56.7893 20.0391 56.4142 20.4142C56.0391 20.7893 55.5304 21 55 21H41C40.4696 21 39.9609 20.7893 39.5858 20.4142C39.2107 20.0391 39 19.5304 39 19V5C39 4.46957 39.2107 3.96086 39.5858 3.58579C39.9609 3.21071 40.4696 3 41 3H55ZM54.5 18.5V13.2C54.5 12.3354 54.1565 11.5062 53.5452 10.8948C52.9338 10.2835 52.1046 9.94 51.24 9.94C50.39 9.94 49.4 10.46 48.92 11.24V10.13H46.13V18.5H48.92V13.57C48.92 12.8 49.54 12.17 50.31 12.17C50.6813 12.17 51.0374 12.3175 51.2999 12.5801C51.5625 12.8426 51.71 13.1987 51.71 13.57V18.5H54.5ZM42.88 8.56C43.3256 8.56 43.7529 8.383 44.0679 8.06794C44.383 7.75288 44.56 7.32556 44.56 6.88C44.56 5.95 43.81 5.19 42.88 5.19C42.4318 5.19 42.0019 5.36805 41.685 5.68499C41.3681 6.00193 41.19 6.43178 41.19 6.88C41.19 7.81 41.95 8.56 42.88 8.56ZM44.27 18.5V10.13H41.5V18.5H44.27Z" fill="white"/>
<path d="M88.6 5.82C87.9166 5.03953 87.5399 4.0374 87.54 3H84.45V15.4C84.4267 16.0712 84.1435 16.7071 83.6603 17.1735C83.1771 17.6399 82.5316 17.9004 81.86 17.9C80.44 17.9 79.26 16.74 79.26 15.3C79.26 13.58 80.92 12.29 82.63 12.82V9.66C79.18 9.2 76.16 11.88 76.16 15.3C76.16 18.63 78.92 21 81.85 21C84.99 21 87.54 18.45 87.54 15.3V9.01C88.793 9.90985 90.2974 10.3926 91.84 10.39V7.3C91.84 7.3 89.96 7.39 88.6 5.82Z" fill="white"/>
<path fill-rule="evenodd" clip-rule="evenodd" d="M120 2C118.409 2 116.883 2.63214 115.757 3.75736C114.632 4.88258 114 6.4087 114 8V9.875L113.1 9.2C112.995 9.12121 112.875 9.06388 112.748 9.03129C112.621 8.99869 112.489 8.99148 112.359 9.01005C112.229 9.02862 112.104 9.07262 111.991 9.13953C111.878 9.20643 111.779 9.29494 111.7 9.4C111.621 9.50506 111.564 9.62461 111.531 9.75182C111.499 9.87903 111.491 10.0114 111.51 10.1414C111.529 10.2714 111.573 10.3965 111.64 10.5095C111.706 10.6225 111.795 10.7212 111.9 10.8L113.766 12.2C113.322 13.368 112.239 14.59 110.486 15.643C110.371 15.7136 110.271 15.8065 110.193 15.9162C110.114 16.0259 110.059 16.1503 110.029 16.2819C109.999 16.4135 109.996 16.5497 110.02 16.6825C110.044 16.8153 110.094 16.9419 110.168 17.055C111.286 18.732 113.06 20 115 20C115.677 20 116.203 20.43 116.724 20.809C117.456 21.34 118.423 22 120 22C121.577 22 122.543 21.341 123.275 20.809C123.797 20.429 124.323 20 125 20C126.94 20 128.714 18.732 129.832 17.055C129.906 16.9419 129.956 16.8153 129.98 16.6825C130.004 16.5497 130.001 16.4135 129.971 16.2819C129.941 16.1503 129.886 16.0259 129.807 15.9162C129.729 15.8065 129.629 15.7136 129.514 15.643C127.761 14.59 126.678 13.368 126.234 12.2L128.1 10.8C128.312 10.6409 128.452 10.404 128.49 10.1414C128.527 9.87887 128.459 9.61217 128.3 9.4C128.141 9.18783 127.904 9.04756 127.641 9.01005C127.379 8.97254 127.112 9.04087 126.9 9.2L126 9.875V8C126 6.4087 125.368 4.88258 124.243 3.75736C123.117 2.63214 121.591 2 120 2ZM116 8C116 6.93913 116.421 5.92172 117.172 5.17157C117.922 4.42143 118.939 4 120 4C121.061 4 122.078 4.42143 122.828 5.17157C123.579 5.92172 124 6.93913 124 8V11C124 13.198 125.42 15.209 127.538 16.735C126.752 17.556 125.825 18 125 18C123.622 18 122.736 18.728 122.1 19.191C121.456 19.659 120.923 20 120 20C119.077 20 118.543 19.659 117.9 19.191C117.265 18.728 116.379 18 115 18C114.174 18 113.248 17.556 112.462 16.735C114.58 15.209 116 13.199 116 11V8Z" fill="white"/>
<path fill-rule="evenodd" clip-rule="evenodd" d="M156 5.59985C156.684 5.59985 157.386 5.61745 158.066 5.64625L158.869 5.68465L159.638 5.73025L160.358 5.77905L161.015 5.83025C161.729 5.88457 162.401 6.189 162.912 6.68993C163.423 7.19087 163.741 7.85617 163.81 8.56865L163.842 8.90865L163.902 9.63665C163.958 10.3911 164 11.2135 164 11.9999C164 12.7863 163.958 13.6087 163.902 14.3631L163.842 15.0911L163.81 15.4311C163.741 16.1437 163.423 16.8091 162.912 17.31C162.4 17.811 161.728 18.1153 161.014 18.1695L160.358 18.2199L159.638 18.2695L158.869 18.3151L158.066 18.3535C157.377 18.3833 156.689 18.3987 156 18.3999C155.311 18.3987 154.623 18.3833 153.934 18.3535L153.131 18.3151L152.362 18.2695L151.642 18.2199L150.985 18.1695C150.271 18.1151 149.599 17.8107 149.088 17.3098C148.577 16.8088 148.259 16.1435 148.19 15.4311L148.158 15.0911L148.098 14.3631C148.037 13.5768 148.004 12.7885 148 11.9999C148 11.2135 148.042 10.3911 148.098 9.63665L148.158 8.90865L148.19 8.56865C148.259 7.8563 148.577 7.1911 149.088 6.69018C149.599 6.18926 150.27 5.88475 150.984 5.83025L151.641 5.77905L152.361 5.73025L153.13 5.68465L153.934 5.64625C154.622 5.61644 155.311 5.60097 156 5.59985ZM154.4 10.0599V13.9399C154.4 14.3095 154.8 14.5399 155.12 14.3559L158.48 12.4159C158.553 12.3738 158.614 12.3132 158.656 12.2401C158.698 12.1671 158.721 12.0842 158.721 11.9999C158.721 11.9155 158.698 11.8326 158.656 11.7596C158.614 11.6866 158.553 11.6259 158.48 11.5839L155.12 9.64465C155.047 9.60251 154.964 9.58033 154.88 9.58035C154.796 9.58036 154.713 9.60257 154.64 9.64473C154.567 9.6869 154.506 9.74753 154.464 9.82055C154.422 9.89356 154.4 9.97637 154.4 10.0607V10.0599Z" fill="white"/>
<path d="M196.272 6.76824C196.082 6.76824 195.897 6.82455 195.739 6.93003C195.581 7.03552 195.458 7.18545 195.385 7.36087C195.312 7.53629 195.293 7.72931 195.331 7.91553C195.368 8.10175 195.459 8.27281 195.593 8.40707C195.727 8.54133 195.899 8.63276 196.085 8.6698C196.271 8.70684 196.464 8.68783 196.639 8.61517C196.815 8.54251 196.965 8.41946 197.07 8.26159C197.176 8.10372 197.232 7.91811 197.232 7.72824C197.232 7.47364 197.131 7.22946 196.951 7.04942C196.771 6.86939 196.527 6.76824 196.272 6.76824ZM199.952 8.70424C199.936 8.0405 199.812 7.3838 199.584 6.76024C199.382 6.22628 199.065 5.74301 198.656 5.34424C198.26 4.93418 197.776 4.61959 197.24 4.42424C196.618 4.18917 195.961 4.06201 195.296 4.04824C194.448 4.00024 194.176 4.00024 192 4.00024C189.824 4.00024 189.552 4.00024 188.704 4.04824C188.039 4.06201 187.382 4.18917 186.76 4.42424C186.226 4.62205 185.742 4.93631 185.344 5.34424C184.934 5.74039 184.619 6.2246 184.424 6.76024C184.189 7.38212 184.062 8.03957 184.048 8.70424C184 9.55224 184 9.82424 184 12.0002C184 14.1762 184 14.4482 184.048 15.2962C184.062 15.9609 184.189 16.6184 184.424 17.2402C184.619 17.7759 184.934 18.2601 185.344 18.6562C185.742 19.0642 186.226 19.3784 186.76 19.5762C187.382 19.8113 188.039 19.9385 188.704 19.9522C189.552 20.0002 189.824 20.0002 192 20.0002C194.176 20.0002 194.448 20.0002 195.296 19.9522C195.961 19.9385 196.618 19.8113 197.24 19.5762C197.776 19.3809 198.26 19.0663 198.656 18.6562C199.066 18.2583 199.383 17.7748 199.584 17.2402C199.812 16.6167 199.936 15.96 199.952 15.2962C199.952 14.4482 200 14.1762 200 12.0002C200 9.82424 200 9.55224 199.952 8.70424ZM198.512 15.2002C198.506 15.7081 198.414 16.2112 198.24 16.6882C198.112 17.0364 197.907 17.351 197.64 17.6082C197.38 17.8725 197.067 18.0772 196.72 18.2082C196.243 18.3826 195.74 18.4746 195.232 18.4802C194.432 18.5202 194.136 18.5282 192.032 18.5282C189.928 18.5282 189.632 18.5282 188.832 18.4802C188.305 18.4906 187.78 18.4094 187.28 18.2402C186.949 18.1021 186.65 17.898 186.4 17.6402C186.135 17.3832 185.932 17.0684 185.808 16.7202C185.612 16.2366 185.504 15.7219 185.488 15.2002C185.488 14.4002 185.44 14.1042 185.44 12.0002C185.44 9.89624 185.44 9.60024 185.488 8.80024C185.491 8.28103 185.586 7.76642 185.768 7.28024C185.909 6.94257 186.125 6.64157 186.4 6.40024C186.642 6.1244 186.943 5.9058 187.28 5.76024C187.768 5.58383 188.282 5.49184 188.8 5.48824C189.6 5.48824 189.896 5.44024 192 5.44024C194.104 5.44024 194.4 5.44024 195.2 5.48824C195.708 5.49391 196.211 5.58589 196.688 5.76024C197.052 5.89517 197.378 6.11452 197.64 6.40024C197.901 6.64666 198.106 6.94692 198.24 7.28024C198.418 7.76735 198.51 8.28165 198.512 8.80024C198.552 9.60024 198.56 9.89624 198.56 12.0002C198.56 14.1042 198.552 14.4002 198.512 15.2002ZM192 7.89624C191.189 7.89783 190.396 8.13986 189.722 8.59178C189.048 9.04369 188.524 9.6852 188.214 10.4352C187.905 11.1853 187.825 12.0102 187.984 12.8058C188.143 13.6014 188.535 14.3319 189.109 14.905C189.683 15.4782 190.414 15.8683 191.21 16.026C192.006 16.1837 192.831 16.1019 193.58 15.7911C194.33 15.4802 194.97 14.9542 195.421 14.2795C195.872 13.6047 196.112 12.8116 196.112 12.0002C196.113 11.4603 196.007 10.9255 195.801 10.4266C195.595 9.92769 195.292 9.47449 194.91 9.09308C194.527 8.71168 194.074 8.40959 193.574 8.20419C193.075 7.99879 192.54 7.89413 192 7.89624ZM192 14.6642C191.473 14.6642 190.958 14.508 190.52 14.2153C190.082 13.9226 189.74 13.5065 189.539 13.0197C189.337 12.5329 189.284 11.9973 189.387 11.4805C189.49 10.9638 189.744 10.4891 190.116 10.1165C190.489 9.74394 190.964 9.49022 191.48 9.38743C191.997 9.28464 192.533 9.3374 193.02 9.53903C193.506 9.74066 193.922 10.0821 194.215 10.5202C194.508 10.9583 194.664 11.4734 194.664 12.0002C194.664 12.3501 194.595 12.6965 194.461 13.0197C194.327 13.3429 194.131 13.6366 193.884 13.884C193.636 14.1314 193.343 14.3276 193.02 14.4615C192.696 14.5953 192.35 14.6642 192 14.6642Z" fill="white"/>
<path d="M229.6 13.2002H231.6L232.4 10.0002H229.6V8.40024C229.6 7.57624 229.6 6.80024 231.2 6.80024H232.4V4.11224C232.139 4.07784 231.154 4.00024 230.114 4.00024C227.942 4.00024 226.4 5.32584 226.4 7.76024V10.0002H224V13.2002H226.4V20.0002H229.6V13.2002Z" fill="white"/>
<g clip-path="url(#clip0_0_550)">
<mask id="mask0_0_550" style="mask-type:luminance" maskUnits="userSpaceOnUse" x="256" y="4" width="16" height="16">
<path d="M256.8 4.80005H271.2V19.2H256.8V4.80005Z" fill="white"/>
</mask>
<g mask="url(#mask0_0_550)">
<path d="M268.14 5.47534H270.348L265.524 11.0029L271.2 18.5259H266.757L263.274 13.9641L259.293 18.5259H257.083L262.242 12.6116L256.8 5.47637H261.357L264.5 9.64517L268.14 5.47534ZM267.363 17.2011H268.587L260.688 6.73123H259.376L267.363 17.2011Z" fill="white"/>
</g>
</g>
<defs>
<clipPath id="clip0_0_550">
<rect width="14.4" height="14.4" fill="white" transform="translate(256.8 4.80005)"/>
</clipPath>
</defs>
</svg>
