<svg width="73" height="29" viewBox="0 0 73 29" fill="none" xmlns="http://www.w3.org/2000/svg">
<g clip-path="url(#clip0_0_508)">
<rect width="73" height="28.6874" rx="8" fill="white"/>
<path d="M26.8734 21.3808V20.9113H25.1373C24.2491 20.9113 23.8396 21.0932 23.8396 21.6156C23.8396 22.2025 24.301 22.584 25.0623 22.584C26.0256 22.584 26.7812 22.0616 26.8734 21.3808ZM26.885 23.8165V22.9654C26.4063 23.5817 25.6334 23.8928 24.6586 23.8928C23.1763 23.8928 22.2534 22.9654 22.2534 21.7153C22.2534 20.4183 23.1936 19.6201 24.8662 19.6084H26.8734V19.4264C26.8734 18.6165 26.3428 18.1294 25.3161 18.1294C24.6701 18.1294 23.978 18.3524 23.2686 18.7867L22.6629 17.607C23.655 17.0436 24.4279 16.7443 25.691 16.7443C27.4964 16.7443 28.5115 17.6775 28.523 19.2327L28.5346 23.8165H26.885Z" fill="#47A147"/>
<path d="M33.6564 16.7384V18.3934C32.2029 18.2995 31.3146 19.1681 31.3146 20.4358V23.8164H29.6419V16.8088H31.3146V18.1587C31.776 17.2372 32.5893 16.756 33.6564 16.7384Z" fill="#47A147"/>
<path d="M37.4573 18.0764C38.4436 18.0764 39.1127 18.6633 39.2108 19.6082H35.6463C35.8424 18.6692 36.5172 18.0764 37.4573 18.0764ZM37.4458 16.7559C35.3867 16.7559 33.9447 18.1997 33.9447 20.3301C33.9447 22.4371 35.3463 23.8809 37.4862 23.8809C38.6974 23.8809 39.701 23.4348 40.3816 22.6777L39.4819 21.7211C38.9916 22.2317 38.3341 22.5075 37.6304 22.5075C36.6268 22.5075 35.877 21.903 35.6578 20.9112H40.745C40.9065 18.364 39.8625 16.7559 37.4458 16.7559Z" fill="#47A147"/>
<path d="M45.0767 18.0764C46.063 18.0764 46.7321 18.6633 46.8302 19.6082H43.2656C43.4675 18.6692 44.1424 18.0764 45.0767 18.0764ZM45.0652 16.7559C43.0061 16.7559 41.5641 18.1997 41.5641 20.3301C41.5641 22.4371 42.9657 23.8809 45.1056 23.8809C46.3168 23.8809 47.3204 23.4348 48.001 22.6777L47.1013 21.7211C46.611 22.2317 45.9535 22.5075 45.2498 22.5075C44.2462 22.5075 43.4964 21.903 43.2772 20.9112H48.3644C48.5317 18.364 47.4877 16.7559 45.0652 16.7559Z" fill="#47A147"/>
<path d="M59.5829 19.4791V23.8574H57.8987V19.978C57.8987 18.9802 57.3853 18.3816 56.7393 18.3816C55.7761 18.3816 55.2858 19.262 55.2858 20.4006V23.8574H53.6016V19.978C53.6016 18.9802 53.0364 18.3816 52.3558 18.3816C51.2541 18.3816 50.9773 19.262 50.9773 20.4006V23.8574H49.3046V16.8439H50.9773L50.983 17.9708C51.4271 17.2313 52.0789 16.7911 52.9499 16.7794C54.0284 16.7794 54.7667 17.513 54.9744 18.1821C55.6377 17.1198 56.2952 16.7794 57.3392 16.7794C58.735 16.7794 59.5829 17.8123 59.5829 19.4791Z" fill="#47A147"/>
<path d="M18.0313 23.9396C15.4877 23.9396 13.4171 21.8326 13.4171 19.2444H15.1763C15.1763 20.8466 16.4567 22.1554 18.0371 22.1554C18.5389 22.1554 19.0349 22.0204 19.4675 21.7622C19.7559 21.592 20.0097 21.3748 20.2231 21.1166L21.567 22.2669C21.2209 22.6836 20.8114 23.0358 20.3442 23.3116C19.6463 23.7225 18.8446 23.9396 18.0313 23.9396Z" fill="#47A147"/>
<path d="M20.2231 17.3724C19.8308 16.9028 19.2944 16.5624 18.7119 16.4157L19.1272 14.6785C20.0731 14.9132 20.9383 15.4591 21.567 16.222L20.2231 17.3724Z" fill="#47A147"/>
<path d="M17.045 16.3511C17.045 17.0906 16.4567 17.6893 15.73 17.6893C15.0032 17.6893 14.4149 17.0906 14.4149 16.3511C14.4149 15.6116 15.0032 15.013 15.73 15.013C16.4567 15.013 17.045 15.6116 17.045 16.3511Z" fill="#47A147"/>
<path d="M56.8892 7.28926L55.9952 7.29513V7.24231C55.9952 6.70823 56.422 6.26805 56.9527 6.26805H59.0291V4.74798H56.9527C55.603 4.74798 54.5014 5.86896 54.5014 7.24231V8.67435H54.5071V8.82108L56.8892 8.81521C57.5468 8.81521 58.0889 9.36103 58.0889 10.036V11.2802H52.3326V7.50642H50.8388V12.6183C50.8388 13.1524 50.412 13.5926 49.8813 13.5926H49.2411V15.1068H49.8813C51.1733 15.1068 52.2288 14.0856 52.3211 12.7944H59.5828V10.0301C59.5828 8.52176 58.3773 7.28926 56.8892 7.28926Z" fill="#47A147"/>
<path d="M47.2454 13.5339C46.8128 13.5339 46.4668 13.8919 46.4668 14.3262C46.4668 14.7664 46.8186 15.1186 47.2454 15.1186C47.678 15.1186 48.0241 14.7605 48.0241 14.3262C48.0241 13.8919 47.678 13.5339 47.2454 13.5339Z" fill="#47A147"/>
<path d="M45.2325 13.5339C44.7999 13.5339 44.4538 13.8919 44.4538 14.3262C44.4538 14.7664 44.8057 15.1186 45.2325 15.1186C45.6651 15.1186 46.0111 14.7605 46.0111 14.3262C46.0111 13.8919 45.6651 13.5339 45.2325 13.5339Z" fill="#47A147"/>
<path d="M41.5468 11.5796C40.8258 11.5796 40.3298 11.0044 40.3298 10.1358C40.3298 9.2789 40.8258 8.70373 41.5468 8.70373C42.2793 8.70373 42.7754 9.2789 42.7754 10.1358C42.7754 11.0044 42.2851 11.5796 41.5468 11.5796ZM49.2411 7.49471H47.7472V10.3177C47.7472 10.8518 47.3204 11.292 46.7898 11.292H46.4264H46.2361H45.8669H45.6824H45.319C44.8345 11.292 44.4307 10.9164 44.3731 10.441C44.3846 10.3353 44.3904 10.2297 44.3904 10.124C44.3904 8.50419 43.2599 7.43016 41.5526 7.43016C39.8453 7.43016 38.7263 8.50419 38.7263 10.124C38.7263 10.3529 38.7494 10.5642 38.7956 10.7696C37.6651 10.9868 36.8057 12.0021 36.8057 13.217V15.1068H38.2995V13.217C38.2995 12.6829 38.7263 12.2428 39.257 12.2428H39.6953C40.1741 12.6125 40.8085 12.8238 41.5584 12.8238C42.4062 12.8238 43.1099 12.5597 43.6059 12.0902C44.0501 12.5362 44.6557 12.812 45.3247 12.812H45.6881H45.8727H46.2418H46.4322H46.7955C48.1452 12.812 49.2469 11.6911 49.2469 10.3177V7.49471H49.2411Z" fill="#47A147"/>
</g>
<defs>
<clipPath id="clip0_0_508">
<rect width="73" height="28.6874" rx="8" fill="white"/>
</clipPath>
</defs>
</svg>
