<svg width="73" height="29" viewBox="0 0 73 29" fill="none" xmlns="http://www.w3.org/2000/svg">
<rect width="73" height="28.6874" rx="8" fill="#E7FE55"/>
<g clip-path="url(#clip0_0_539)">
<path d="M15.9705 9.14306V11.72L14.6815 11.0172C10.9098 9.0962 5.99229 12.0011 5.94454 16.1243C5.94454 17.5767 6.94714 19.732 8.04522 20.6222C9.38202 21.6999 12.1988 22.0747 14.1563 21.4187C15.1589 21.0439 15.9705 20.9502 15.9705 21.1845C15.9705 21.4187 16.7344 21.6061 17.6415 21.6061H19.3602L19.217 14.2033L19.0738 6.84722L17.546 6.70666L15.9705 6.5661V9.14306ZM14.0131 14.297C14.7769 15.1872 14.204 17.0613 12.8195 18.3732C11.8646 19.2166 11.435 19.3572 10.8143 18.9823C9.52525 18.1858 9.62073 16.7334 10.9575 15.0935C12.3421 13.5005 13.1537 13.2662 14.0131 14.297Z" fill="black"/>
<path d="M30.1978 7.12839C29.1475 7.69064 29.0997 9.09625 30.0546 9.89276C30.6275 10.3613 31.0572 10.3613 31.9643 9.98647C33.3966 9.33052 33.5398 7.78434 32.2507 7.08154C31.1527 6.51929 31.2004 6.51929 30.1978 7.12839Z" fill="black"/>
<path d="M50.8705 10.736C46.6691 11.3451 44.5684 16.5459 47.2898 19.6851C49.7724 22.59 54.7376 22.59 57.3157 19.5914L58.6048 18.0921L56.8383 17.9515C55.7402 17.8578 54.8331 18.0452 54.3557 18.5137C53.3531 19.5445 51.1569 19.4508 50.2021 18.42C49.7246 17.9515 49.3904 17.3893 49.3904 17.2487C49.3904 17.0613 51.4434 16.9207 53.926 16.9207H58.4616V15.5151C58.4616 12.6102 54.6421 10.1738 50.8705 10.736ZM53.735 13.641C55.3105 14.4843 54.7376 15.0466 52.255 15.0466C49.8201 15.0466 49.1995 14.5312 50.7272 13.6878C51.7776 13.0787 52.5892 13.0787 53.735 13.641Z" fill="black"/>
<path d="M21.5564 11.1578C21.3655 11.2983 21.2222 13.7347 21.2222 16.5459V21.6062H22.8932H24.5642V18.139C24.5642 14.7655 24.5642 14.7187 25.7101 14.9061C26.6172 15.0935 27.0469 14.8592 27.572 13.7816C28.0972 12.8445 28.1449 12.1886 27.8585 11.6263C27.2378 10.5487 26.7127 10.6424 25.5191 11.8606L24.5642 12.8914V11.8606C24.5642 11.0641 24.2778 10.8298 23.2274 10.8298C22.4636 10.8298 21.6997 10.9704 21.5564 11.1578Z" fill="black"/>
<path d="M29.5295 11.439C29.434 11.7669 29.3863 14.1565 29.434 16.7334L29.5772 21.372H31.1527C31.9644 21.372 32.6805 21.2314 32.6805 20.9971C32.6805 20.8097 32.6805 18.467 32.6805 15.7495V10.8299H31.2482C30.4366 10.8299 29.6727 11.111 29.5295 11.439Z" fill="black"/>
<path d="M34.5903 11.3452C34.5903 11.6263 35.4496 14.0158 36.5477 16.7334L38.5052 21.6062H40.2717H42.0859L44.0433 16.6397C45.1414 13.9221 46.0485 11.5326 46.0485 11.2515C46.0485 11.0172 45.4279 10.8298 44.664 10.8298C43.4227 10.8298 43.184 11.1109 41.9426 14.3438C41.1788 16.2648 40.4626 17.8579 40.2717 17.8579C40.1284 17.8579 39.3645 16.2648 38.6484 14.3438C37.4548 11.0641 37.2639 10.8298 35.9748 10.8298C35.2109 10.8298 34.5903 11.0641 34.5903 11.3452Z" fill="black"/>
<path d="M60.3713 16.2647V21.6528L61.9468 21.5123L63.4745 21.3717L63.6178 18.1857C63.761 15.4681 63.8565 15.0465 64.6681 15.0465C65.7184 15.0465 67.0552 13.3597 67.0552 12.0947C67.0552 10.9233 65.7662 10.5954 64.7158 11.4856C63.952 12.1884 63.8087 12.1884 63.57 11.5324C63.379 11.1108 62.6629 10.8296 61.8035 10.8296H60.3713V16.2647Z" fill="black"/>
</g>
<defs>
<clipPath id="clip0_0_539">
<rect width="60.392" height="15.2799" fill="white" transform="translate(5.94454 6.61293) scale(1.0119)"/>
</clipPath>
</defs>
</svg>
