<svg width="28" height="28" viewBox="0 0 28 28" fill="none" xmlns="http://www.w3.org/2000/svg">
<g clip-path="url(#clip0_0_1404)">
<path fill-rule="evenodd" clip-rule="evenodd" d="M14 2.33333C20.4435 2.33333 25.6667 7.5565 25.6667 14C25.6708 16.6925 24.7396 19.3029 23.0323 21.385L23.0557 21.4107L22.9017 21.5413C21.8076 22.8354 20.4442 23.8751 18.9067 24.5876C17.3692 25.3001 15.6946 25.6684 14 25.6667C10.5583 25.6667 7.46667 24.1768 5.33167 21.8085L5.09834 21.5402L4.94434 21.4118L4.96767 21.3838C3.26056 19.3021 2.3294 16.6922 2.33334 14C2.33334 7.5565 7.55651 2.33333 14 2.33333ZM14 19.8333C11.83 19.8333 9.86884 20.524 8.40817 21.4737C10.021 22.6838 11.9837 23.3365 14 23.3333C16.0163 23.3365 17.979 22.6838 19.5918 21.4737C17.9228 20.4041 15.9823 19.8349 14 19.8333ZM14 4.66667C12.2436 4.66662 10.5229 5.16217 9.03552 6.09636C7.54817 7.03055 6.35461 8.36547 5.59203 9.94767C4.82944 11.5299 4.52878 13.2951 4.7246 15.0406C4.92042 16.786 5.60478 18.4408 6.69901 19.8147C8.59017 18.4578 11.1708 17.5 14 17.5C16.8292 17.5 19.4098 18.4578 21.301 19.8147C22.3952 18.4408 23.0796 16.786 23.2754 15.0406C23.4712 13.2951 23.1706 11.5299 22.408 9.94767C21.6454 8.36547 20.4518 7.03055 18.9645 6.09636C17.4772 5.16217 15.7564 4.66662 14 4.66667ZM14 7C15.2377 7 16.4247 7.49167 17.2998 8.36684C18.175 9.24201 18.6667 10.429 18.6667 11.6667C18.6667 12.9043 18.175 14.0913 17.2998 14.9665C16.4247 15.8417 15.2377 16.3333 14 16.3333C12.7623 16.3333 11.5753 15.8417 10.7002 14.9665C9.82501 14.0913 9.33334 12.9043 9.33334 11.6667C9.33334 10.429 9.82501 9.24201 10.7002 8.36684C11.5753 7.49167 12.7623 7 14 7ZM14 9.33333C13.3812 9.33333 12.7877 9.57917 12.3501 10.0168C11.9125 10.4543 11.6667 11.0478 11.6667 11.6667C11.6667 12.2855 11.9125 12.879 12.3501 13.3166C12.7877 13.7542 13.3812 14 14 14C14.6188 14 15.2123 13.7542 15.6499 13.3166C16.0875 12.879 16.3333 12.2855 16.3333 11.6667C16.3333 11.0478 16.0875 10.4543 15.6499 10.0168C15.2123 9.57917 14.6188 9.33333 14 9.33333Z" fill="#B44734"/>
</g>
<defs>
<clipPath id="clip0_0_1404">
<rect width="28" height="28" fill="white"/>
</clipPath>
</defs>
</svg>
